%TF.GenerationSoftware,KiCad,Pcbnew,(5.1.8)-1*%
%TF.CreationDate,2021-08-08T13:00:58+02:00*%
%TF.ProjectId,miniki v2,6d696e69-6b69-4207-9632-2e6b69636164,rev?*%
%TF.SameCoordinates,Original*%
%TF.FileFunction,Paste,Bot*%
%TF.FilePolarity,Positive*%
%FSLAX46Y46*%
G04 Gerber Fmt 4.6, Leading zero omitted, Abs format (unit mm)*
G04 Created by KiCad (PCBNEW (5.1.8)-1) date 2021-08-08 13:00:58*
%MOMM*%
%LPD*%
G01*
G04 APERTURE LIST*
%ADD10R,0.900000X1.200000*%
%ADD11C,1.524000*%
%ADD12C,2.000000*%
%ADD13R,2.600000X2.600000*%
%ADD14C,0.100000*%
G04 APERTURE END LIST*
D10*
%TO.C,D18*%
X140350000Y-102000000D03*
X143650000Y-102000000D03*
%TD*%
%TO.C,D17*%
X140350000Y-85000000D03*
X143650000Y-85000000D03*
%TD*%
%TO.C,D15*%
X122350000Y-97000000D03*
X125650000Y-97000000D03*
%TD*%
%TO.C,D14*%
X122350000Y-80000000D03*
X125650000Y-80000000D03*
%TD*%
%TO.C,D13*%
X122350000Y-63000000D03*
X125650000Y-63000000D03*
%TD*%
%TO.C,D12*%
X94850000Y-114000000D03*
X98150000Y-114000000D03*
%TD*%
%TO.C,D11*%
X104350000Y-93000000D03*
X107650000Y-93000000D03*
%TD*%
%TO.C,D10*%
X104350000Y-76000000D03*
X107650000Y-76000000D03*
%TD*%
D11*
%TO.C,U1*%
X33393525Y-78586180D03*
X47887626Y-73876761D03*
X48756656Y-72259039D03*
X34262555Y-76968458D03*
X48672529Y-76292444D03*
X49457433Y-78708128D03*
X50242336Y-81123811D03*
X51027239Y-83539495D03*
X51812142Y-85955178D03*
X52597045Y-88370862D03*
X53381948Y-90786545D03*
X54166852Y-93202229D03*
X54951755Y-95617913D03*
X55736658Y-98033596D03*
X56521561Y-100449280D03*
X57306464Y-102864963D03*
X42812363Y-107574382D03*
X42027460Y-105158699D03*
X41242557Y-102743015D03*
X40457653Y-100327332D03*
X39672750Y-97911648D03*
X38887847Y-95495964D03*
X38102944Y-93080281D03*
X37318041Y-90664597D03*
X36533138Y-88248914D03*
X35748234Y-85833230D03*
X34963331Y-83417547D03*
X34178428Y-81001863D03*
X49522538Y-74680903D03*
X50307441Y-77096586D03*
X51092344Y-79512270D03*
X51877248Y-81927953D03*
X52662151Y-84343637D03*
X53447054Y-86759320D03*
X54231957Y-89175004D03*
X55016860Y-91590687D03*
X55801763Y-94006371D03*
X56586667Y-96422055D03*
X57371570Y-98837738D03*
X58156473Y-101253422D03*
X43681393Y-105956660D03*
X42896490Y-103540977D03*
X42111586Y-101125293D03*
X41326683Y-98709610D03*
X40541780Y-96293926D03*
X39756877Y-93878243D03*
X38971974Y-91462559D03*
X38187071Y-89046875D03*
X37402167Y-86631192D03*
X36617264Y-84215508D03*
X35832361Y-81799825D03*
X35047458Y-79384141D03*
%TD*%
D12*
%TO.C,Reset1*%
X63000000Y-104000000D03*
X68000000Y-104000000D03*
X68000000Y-111000000D03*
X63000000Y-111000000D03*
%TD*%
D11*
%TO.C,Power1*%
X73804226Y-62763932D03*
X71902113Y-63381966D03*
X70000000Y-64000000D03*
%TD*%
D13*
%TO.C,K18*%
X145275000Y-112950000D03*
X133725000Y-110750000D03*
%TD*%
%TO.C,K17*%
X145275000Y-95950000D03*
X133725000Y-93750000D03*
%TD*%
%TO.C,K15*%
X127275000Y-107950000D03*
X115725000Y-105750000D03*
%TD*%
%TO.C,K14*%
X127275000Y-90950000D03*
X115725000Y-88750000D03*
%TD*%
%TO.C,K13*%
X127275000Y-73950000D03*
X115725000Y-71750000D03*
%TD*%
%TO.C,K12*%
X99775000Y-124950000D03*
X88225000Y-122750000D03*
%TD*%
%TO.C,K11*%
X109275000Y-103950000D03*
X97725000Y-101750000D03*
%TD*%
%TO.C,K10*%
X109275000Y-86950000D03*
X97725000Y-84750000D03*
%TD*%
%TO.C,K9*%
X109275000Y-69950000D03*
X97725000Y-67750000D03*
%TD*%
D14*
%TO.C,K8*%
G36*
X80084834Y-127051783D02*
G01*
X79678104Y-124483793D01*
X82246094Y-124077063D01*
X82652824Y-126645053D01*
X80084834Y-127051783D01*
G37*
G36*
X68332878Y-126685686D02*
G01*
X67926148Y-124117696D01*
X70494138Y-123710966D01*
X70900868Y-126278956D01*
X68332878Y-126685686D01*
G37*
%TD*%
D13*
%TO.C,K7*%
X91275000Y-107950000D03*
X79725000Y-105750000D03*
%TD*%
%TO.C,K6*%
X91275000Y-90950000D03*
X79725000Y-88750000D03*
%TD*%
%TO.C,K5*%
X91275000Y-73950000D03*
X79725000Y-71750000D03*
%TD*%
D14*
%TO.C,K4*%
G36*
X62018710Y-130684852D02*
G01*
X61215265Y-128212105D01*
X63688012Y-127408660D01*
X64491457Y-129881407D01*
X62018710Y-130684852D01*
G37*
G36*
X50354170Y-132161674D02*
G01*
X49550725Y-129688927D01*
X52023472Y-128885482D01*
X52826917Y-131358229D01*
X50354170Y-132161674D01*
G37*
%TD*%
D13*
%TO.C,K2*%
X73275000Y-99450000D03*
X61725000Y-97250000D03*
%TD*%
%TO.C,K1*%
X73275000Y-82450000D03*
X61725000Y-80250000D03*
%TD*%
D14*
%TO.C,J1*%
G36*
X50092549Y-110067326D02*
G01*
X49320007Y-107689685D01*
X50461275Y-107318864D01*
X51233817Y-109696505D01*
X50092549Y-110067326D01*
G37*
G36*
X50457733Y-116783175D02*
G01*
X49685191Y-114405534D01*
X50826459Y-114034713D01*
X51599001Y-116412354D01*
X50457733Y-116783175D01*
G37*
G36*
X46653507Y-118019243D02*
G01*
X45880965Y-115641602D01*
X47022233Y-115270781D01*
X47794775Y-117648422D01*
X46653507Y-118019243D01*
G37*
G36*
X43800338Y-118946294D02*
G01*
X43027796Y-116568653D01*
X44169064Y-116197832D01*
X44941606Y-118575473D01*
X43800338Y-118946294D01*
G37*
%TD*%
D10*
%TO.C,D9*%
X104350000Y-59000000D03*
X107650000Y-59000000D03*
%TD*%
D14*
%TO.C,D8*%
G36*
X74219715Y-116121126D02*
G01*
X74031994Y-114935900D01*
X74920913Y-114795108D01*
X75108634Y-115980334D01*
X74219715Y-116121126D01*
G37*
G36*
X77479087Y-115604892D02*
G01*
X77291366Y-114419666D01*
X78180285Y-114278874D01*
X78368006Y-115464100D01*
X77479087Y-115604892D01*
G37*
%TD*%
D10*
%TO.C,D7*%
X86350000Y-97000000D03*
X89650000Y-97000000D03*
%TD*%
%TO.C,D6*%
X86350000Y-80000000D03*
X89650000Y-80000000D03*
%TD*%
%TO.C,D5*%
X86350000Y-63000000D03*
X89650000Y-63000000D03*
%TD*%
D14*
%TO.C,D4*%
G36*
X54588192Y-121019570D02*
G01*
X54217371Y-119878302D01*
X55073322Y-119600186D01*
X55444143Y-120741454D01*
X54588192Y-121019570D01*
G37*
G36*
X57726678Y-119999814D02*
G01*
X57355857Y-118858546D01*
X58211808Y-118580430D01*
X58582629Y-119721698D01*
X57726678Y-119999814D01*
G37*
%TD*%
D10*
%TO.C,D2*%
X68350000Y-88500000D03*
X71650000Y-88500000D03*
%TD*%
%TO.C,D1*%
X68350000Y-71500000D03*
X71650000Y-71500000D03*
%TD*%
M02*
