M48
; DRILL file {KiCad (5.1.8)-1} date 08/08/21 13:01:02
; FORMAT={2:4/ absolute / inch / suppress leading zeros}
; #@! TF.CreationDate,2021-08-08T13:01:02+02:00
; #@! TF.GenerationSoftware,Kicad,Pcbnew,(5.1.8)-1
; #@! TF.FileFunction,NonPlated,1,2,NPTH
FMAT,2
INCH,TZ
T1C0.0433
T2C0.0591
T3C0.0670
T4C0.1181
T5C0.1350
%
G90
G05
T1
X26810Y-25440
X29806Y-24467
T2
X16438Y-45228
X19153Y-44346
T3
X35827Y-46850
X40157Y-46850
X28176Y-47662
X32454Y-46984
X20736Y-49646
X24855Y-48307
X32480Y-33465
X36811Y-33465
X32480Y-40157
X36811Y-40157
X53740Y-42126
X58071Y-42126
X25394Y-36811
X29724Y-36811
X46654Y-40157
X50984Y-40157
X39567Y-31890
X43898Y-31890
X39567Y-25197
X43898Y-25197
X53740Y-35433
X58071Y-35433
X46654Y-26772
X50984Y-26772
X46654Y-33465
X50984Y-33465
X25394Y-30118
X29724Y-30118
X39567Y-38583
X43898Y-38583
X32480Y-26772
X36811Y-26772
T4
X32677Y-34941
X34646Y-35807
X36614Y-34941
X32677Y-41634
X34646Y-42500
X36614Y-41634
X53937Y-43602
X55906Y-44469
X57874Y-43602
X25591Y-38287
X27559Y-39154
X29528Y-38287
X46850Y-41634
X48819Y-42500
X50787Y-41634
X39764Y-33366
X41732Y-34232
X43701Y-33366
X39764Y-26673
X41732Y-27539
X43701Y-26673
X53937Y-36909
X55906Y-37776
X57874Y-36909
X46850Y-28248
X48819Y-29114
X50787Y-28248
X46850Y-34941
X48819Y-35807
X50787Y-34941
X25591Y-31594
X27559Y-32461
X29528Y-31594
X39764Y-40059
X41732Y-40925
X43701Y-40059
X32677Y-28248
X34646Y-29114
X36614Y-28248
X36024Y-48327
X37992Y-49193
X39961Y-48327
X28602Y-49089
X30681Y-49637
X32490Y-48473
X21379Y-50989
X23519Y-51204
X25124Y-49772
T5
X55906Y-35433
X48819Y-26772
X48819Y-33465
X27559Y-30118
X41732Y-38583
X34646Y-26772
X37992Y-46850
X30315Y-47323
X22795Y-48976
X34646Y-33465
X34646Y-40157
X55906Y-42126
X27559Y-36811
X48819Y-40157
X41732Y-31890
X41732Y-25197
T0
M30
