%TF.GenerationSoftware,KiCad,Pcbnew,(5.1.8)-1*%
%TF.CreationDate,2021-08-08T13:00:59+02:00*%
%TF.ProjectId,miniki v2,6d696e69-6b69-4207-9632-2e6b69636164,rev?*%
%TF.SameCoordinates,Original*%
%TF.FileFunction,Soldermask,Top*%
%TF.FilePolarity,Negative*%
%FSLAX46Y46*%
G04 Gerber Fmt 4.6, Leading zero omitted, Abs format (unit mm)*
G04 Created by KiCad (PCBNEW (5.1.8)-1) date 2021-08-08 13:00:59*
%MOMM*%
%LPD*%
G01*
G04 APERTURE LIST*
%ADD10R,0.900000X1.200000*%
%ADD11C,1.524000*%
%ADD12C,2.000000*%
%ADD13C,1.700000*%
%ADD14C,1.701800*%
%ADD15R,2.600000X2.600000*%
%ADD16C,3.000000*%
%ADD17C,3.429000*%
%ADD18C,0.100000*%
%ADD19C,1.500000*%
G04 APERTURE END LIST*
D10*
%TO.C,D18*%
X143650000Y-102000000D03*
X140350000Y-102000000D03*
%TD*%
%TO.C,D17*%
X143650000Y-85000000D03*
X140350000Y-85000000D03*
%TD*%
%TO.C,D15*%
X125650000Y-97000000D03*
X122350000Y-97000000D03*
%TD*%
%TO.C,D14*%
X125650000Y-80000000D03*
X122350000Y-80000000D03*
%TD*%
%TO.C,D13*%
X125650000Y-63000000D03*
X122350000Y-63000000D03*
%TD*%
%TO.C,D12*%
X98150000Y-114000000D03*
X94850000Y-114000000D03*
%TD*%
%TO.C,D11*%
X107650000Y-93000000D03*
X104350000Y-93000000D03*
%TD*%
%TO.C,D10*%
X107650000Y-76000000D03*
X104350000Y-76000000D03*
%TD*%
D11*
%TO.C,U1*%
X33393525Y-78586180D03*
X47887626Y-73876761D03*
X48756656Y-72259039D03*
X34262555Y-76968458D03*
X48672529Y-76292444D03*
X49457433Y-78708128D03*
X50242336Y-81123811D03*
X51027239Y-83539495D03*
X51812142Y-85955178D03*
X52597045Y-88370862D03*
X53381948Y-90786545D03*
X54166852Y-93202229D03*
X54951755Y-95617913D03*
X55736658Y-98033596D03*
X56521561Y-100449280D03*
X57306464Y-102864963D03*
X42812363Y-107574382D03*
X42027460Y-105158699D03*
X41242557Y-102743015D03*
X40457653Y-100327332D03*
X39672750Y-97911648D03*
X38887847Y-95495964D03*
X38102944Y-93080281D03*
X37318041Y-90664597D03*
X36533138Y-88248914D03*
X35748234Y-85833230D03*
X34963331Y-83417547D03*
X34178428Y-81001863D03*
X49522538Y-74680903D03*
X50307441Y-77096586D03*
X51092344Y-79512270D03*
X51877248Y-81927953D03*
X52662151Y-84343637D03*
X53447054Y-86759320D03*
X54231957Y-89175004D03*
X55016860Y-91590687D03*
X55801763Y-94006371D03*
X56586667Y-96422055D03*
X57371570Y-98837738D03*
X58156473Y-101253422D03*
X43681393Y-105956660D03*
X42896490Y-103540977D03*
X42111586Y-101125293D03*
X41326683Y-98709610D03*
X40541780Y-96293926D03*
X39756877Y-93878243D03*
X38971974Y-91462559D03*
X38187071Y-89046875D03*
X37402167Y-86631192D03*
X36617264Y-84215508D03*
X35832361Y-81799825D03*
X35047458Y-79384141D03*
%TD*%
D12*
%TO.C,Reset1*%
X63000000Y-104000000D03*
X68000000Y-104000000D03*
X68000000Y-111000000D03*
X63000000Y-111000000D03*
%TD*%
D13*
%TO.C,Power1*%
X75706339Y-62145898D03*
X68097887Y-64618034D03*
D11*
X73804226Y-62763932D03*
X71902113Y-63381966D03*
X70000000Y-64000000D03*
%TD*%
D14*
%TO.C,K18*%
X136500000Y-107000000D03*
X147500000Y-107000000D03*
D15*
X138725000Y-112950000D03*
D16*
X147000000Y-110750000D03*
D17*
X142000000Y-107000000D03*
D16*
X142000000Y-112950000D03*
D15*
X150275000Y-110750000D03*
D16*
X137000000Y-110750000D03*
%TD*%
D14*
%TO.C,K17*%
X136500000Y-90000000D03*
X147500000Y-90000000D03*
D15*
X138725000Y-95950000D03*
D16*
X147000000Y-93750000D03*
D17*
X142000000Y-90000000D03*
D16*
X142000000Y-95950000D03*
D15*
X150275000Y-93750000D03*
D16*
X137000000Y-93750000D03*
%TD*%
D14*
%TO.C,K15*%
X118500000Y-102000000D03*
X129500000Y-102000000D03*
D15*
X120725000Y-107950000D03*
D16*
X129000000Y-105750000D03*
D17*
X124000000Y-102000000D03*
D16*
X124000000Y-107950000D03*
D15*
X132275000Y-105750000D03*
D16*
X119000000Y-105750000D03*
%TD*%
D14*
%TO.C,K14*%
X118500000Y-85000000D03*
X129500000Y-85000000D03*
D15*
X120725000Y-90950000D03*
D16*
X129000000Y-88750000D03*
D17*
X124000000Y-85000000D03*
D16*
X124000000Y-90950000D03*
D15*
X132275000Y-88750000D03*
D16*
X119000000Y-88750000D03*
%TD*%
D14*
%TO.C,K13*%
X118500000Y-68000000D03*
X129500000Y-68000000D03*
D15*
X120725000Y-73950000D03*
D16*
X129000000Y-71750000D03*
D17*
X124000000Y-68000000D03*
D16*
X124000000Y-73950000D03*
D15*
X132275000Y-71750000D03*
D16*
X119000000Y-71750000D03*
%TD*%
D14*
%TO.C,K12*%
X91000000Y-119000000D03*
X102000000Y-119000000D03*
D15*
X93225000Y-124950000D03*
D16*
X101500000Y-122750000D03*
D17*
X96500000Y-119000000D03*
D16*
X96500000Y-124950000D03*
D15*
X104775000Y-122750000D03*
D16*
X91500000Y-122750000D03*
%TD*%
D14*
%TO.C,K11*%
X100500000Y-98000000D03*
X111500000Y-98000000D03*
D15*
X102725000Y-103950000D03*
D16*
X111000000Y-101750000D03*
D17*
X106000000Y-98000000D03*
D16*
X106000000Y-103950000D03*
D15*
X114275000Y-101750000D03*
D16*
X101000000Y-101750000D03*
%TD*%
D14*
%TO.C,K10*%
X100500000Y-81000000D03*
X111500000Y-81000000D03*
D15*
X102725000Y-86950000D03*
D16*
X111000000Y-84750000D03*
D17*
X106000000Y-81000000D03*
D16*
X106000000Y-86950000D03*
D15*
X114275000Y-84750000D03*
D16*
X101000000Y-84750000D03*
%TD*%
D14*
%TO.C,K9*%
X100500000Y-64000000D03*
X111500000Y-64000000D03*
D15*
X102725000Y-69950000D03*
D16*
X111000000Y-67750000D03*
D17*
X106000000Y-64000000D03*
D16*
X106000000Y-69950000D03*
D15*
X114275000Y-67750000D03*
D16*
X101000000Y-67750000D03*
%TD*%
D14*
%TO.C,K8*%
X71567714Y-121060390D03*
X82432286Y-119339610D03*
D18*
G36*
X73615476Y-128076428D02*
G01*
X73208746Y-125508438D01*
X75776736Y-125101708D01*
X76183466Y-127669698D01*
X73615476Y-128076428D01*
G37*
D16*
X82525071Y-123121659D03*
D17*
X77000000Y-120200000D03*
D16*
X77930785Y-126076746D03*
D18*
G36*
X84679120Y-124096696D02*
G01*
X84272390Y-121528706D01*
X86840380Y-121121976D01*
X87247110Y-123689966D01*
X84679120Y-124096696D01*
G37*
D16*
X72648188Y-124686004D03*
%TD*%
D14*
%TO.C,K7*%
X82500000Y-102000000D03*
X93500000Y-102000000D03*
D15*
X84725000Y-107950000D03*
D16*
X93000000Y-105750000D03*
D17*
X88000000Y-102000000D03*
D16*
X88000000Y-107950000D03*
D15*
X96275000Y-105750000D03*
D16*
X83000000Y-105750000D03*
%TD*%
D14*
%TO.C,K6*%
X82500000Y-85000000D03*
X93500000Y-85000000D03*
D15*
X84725000Y-90950000D03*
D16*
X93000000Y-88750000D03*
D17*
X88000000Y-85000000D03*
D16*
X88000000Y-90950000D03*
D15*
X96275000Y-88750000D03*
D16*
X83000000Y-88750000D03*
%TD*%
D14*
%TO.C,K5*%
X82500000Y-68000000D03*
X93500000Y-68000000D03*
D15*
X84725000Y-73950000D03*
D16*
X93000000Y-71750000D03*
D17*
X88000000Y-68000000D03*
D16*
X88000000Y-73950000D03*
D15*
X96275000Y-71750000D03*
D16*
X83000000Y-71750000D03*
%TD*%
D14*
%TO.C,K4*%
X52669189Y-126099593D03*
X63130811Y-122700407D03*
D18*
G36*
X55789290Y-132708913D02*
G01*
X54985845Y-130236166D01*
X57458592Y-129432721D01*
X58262037Y-131905468D01*
X55789290Y-132708913D01*
G37*
D16*
X63814096Y-126421377D03*
D17*
X57900000Y-124400000D03*
D16*
X59738651Y-130058786D03*
D18*
G36*
X66094155Y-127047442D02*
G01*
X65290710Y-124574695D01*
X67763457Y-123771250D01*
X68566902Y-126243997D01*
X66094155Y-127047442D01*
G37*
D16*
X54303531Y-129511547D03*
%TD*%
D14*
%TO.C,K2*%
X64500000Y-93500000D03*
X75500000Y-93500000D03*
D15*
X66725000Y-99450000D03*
D16*
X75000000Y-97250000D03*
D17*
X70000000Y-93500000D03*
D16*
X70000000Y-99450000D03*
D15*
X78275000Y-97250000D03*
D16*
X65000000Y-97250000D03*
%TD*%
D14*
%TO.C,K1*%
X64500000Y-76500000D03*
X75500000Y-76500000D03*
D15*
X66725000Y-82450000D03*
D16*
X75000000Y-80250000D03*
D17*
X70000000Y-76500000D03*
D16*
X70000000Y-82450000D03*
D15*
X78275000Y-80250000D03*
D16*
X65000000Y-80250000D03*
%TD*%
D19*
%TO.C,J1*%
X48648692Y-112639388D03*
X41753533Y-114879761D03*
D18*
G36*
X41791727Y-112764426D02*
G01*
X41019185Y-110386785D01*
X42160453Y-110015964D01*
X42932995Y-112393605D01*
X41791727Y-112764426D01*
G37*
G36*
X44644897Y-111837375D02*
G01*
X43872355Y-109459734D01*
X45013623Y-109088913D01*
X45786165Y-111466554D01*
X44644897Y-111837375D01*
G37*
G36*
X48449123Y-110601307D02*
G01*
X47676581Y-108223666D01*
X48817849Y-107852845D01*
X49590391Y-110230486D01*
X48449123Y-110601307D01*
G37*
G36*
X52101159Y-116249193D02*
G01*
X51328617Y-113871552D01*
X52469885Y-113500731D01*
X53242427Y-115878372D01*
X52101159Y-116249193D01*
G37*
%TD*%
D11*
%TO.C,batt-1*%
X53000000Y-71000000D03*
%TD*%
%TO.C,batt+1*%
X57000000Y-70000000D03*
%TD*%
D10*
%TO.C,D9*%
X107650000Y-59000000D03*
X104350000Y-59000000D03*
%TD*%
D18*
%TO.C,D8*%
G36*
X77479087Y-115604892D02*
G01*
X77291366Y-114419666D01*
X78180285Y-114278874D01*
X78368006Y-115464100D01*
X77479087Y-115604892D01*
G37*
G36*
X74219715Y-116121126D02*
G01*
X74031994Y-114935900D01*
X74920913Y-114795108D01*
X75108634Y-115980334D01*
X74219715Y-116121126D01*
G37*
%TD*%
D10*
%TO.C,D7*%
X89650000Y-97000000D03*
X86350000Y-97000000D03*
%TD*%
%TO.C,D6*%
X89650000Y-80000000D03*
X86350000Y-80000000D03*
%TD*%
%TO.C,D5*%
X89650000Y-63000000D03*
X86350000Y-63000000D03*
%TD*%
D18*
%TO.C,D4*%
G36*
X57726678Y-119999814D02*
G01*
X57355857Y-118858546D01*
X58211808Y-118580430D01*
X58582629Y-119721698D01*
X57726678Y-119999814D01*
G37*
G36*
X54588192Y-121019570D02*
G01*
X54217371Y-119878302D01*
X55073322Y-119600186D01*
X55444143Y-120741454D01*
X54588192Y-121019570D01*
G37*
%TD*%
D10*
%TO.C,D2*%
X71650000Y-88500000D03*
X68350000Y-88500000D03*
%TD*%
%TO.C,D1*%
X71650000Y-71500000D03*
X68350000Y-71500000D03*
%TD*%
M02*
