%TF.GenerationSoftware,KiCad,Pcbnew,(5.1.8)-1*%
%TF.CreationDate,2021-08-08T13:00:58+02:00*%
%TF.ProjectId,miniki v2,6d696e69-6b69-4207-9632-2e6b69636164,rev?*%
%TF.SameCoordinates,Original*%
%TF.FileFunction,Legend,Top*%
%TF.FilePolarity,Positive*%
%FSLAX46Y46*%
G04 Gerber Fmt 4.6, Leading zero omitted, Abs format (unit mm)*
G04 Created by KiCad (PCBNEW (5.1.8)-1) date 2021-08-08 13:00:58*
%MOMM*%
%LPD*%
G01*
G04 APERTURE LIST*
%ADD10C,0.600000*%
%ADD11C,0.120000*%
%ADD12C,0.100000*%
%ADD13C,0.150000*%
%ADD14C,0.125000*%
G04 APERTURE END LIST*
D10*
X108821428Y-118607142D02*
X108821428Y-115607142D01*
X109821428Y-117750000D01*
X110821428Y-115607142D01*
X110821428Y-118607142D01*
X112250000Y-118607142D02*
X112250000Y-116607142D01*
X112250000Y-115607142D02*
X112107142Y-115750000D01*
X112250000Y-115892857D01*
X112392857Y-115750000D01*
X112250000Y-115607142D01*
X112250000Y-115892857D01*
X113678571Y-116607142D02*
X113678571Y-118607142D01*
X113678571Y-116892857D02*
X113821428Y-116750000D01*
X114107142Y-116607142D01*
X114535714Y-116607142D01*
X114821428Y-116750000D01*
X114964285Y-117035714D01*
X114964285Y-118607142D01*
X116392857Y-118607142D02*
X116392857Y-116607142D01*
X116392857Y-115607142D02*
X116250000Y-115750000D01*
X116392857Y-115892857D01*
X116535714Y-115750000D01*
X116392857Y-115607142D01*
X116392857Y-115892857D01*
X117821428Y-118607142D02*
X117821428Y-115607142D01*
X118107142Y-117464285D02*
X118964285Y-118607142D01*
X118964285Y-116607142D02*
X117821428Y-117750000D01*
X120250000Y-118607142D02*
X120250000Y-116607142D01*
X120250000Y-115607142D02*
X120107142Y-115750000D01*
X120250000Y-115892857D01*
X120392857Y-115750000D01*
X120250000Y-115607142D01*
X120250000Y-115892857D01*
X123821428Y-115892857D02*
X123964285Y-115750000D01*
X124250000Y-115607142D01*
X124964285Y-115607142D01*
X125250000Y-115750000D01*
X125392857Y-115892857D01*
X125535714Y-116178571D01*
X125535714Y-116464285D01*
X125392857Y-116892857D01*
X123678571Y-118607142D01*
X125535714Y-118607142D01*
X126821428Y-118321428D02*
X126964285Y-118464285D01*
X126821428Y-118607142D01*
X126678571Y-118464285D01*
X126821428Y-118321428D01*
X126821428Y-118607142D01*
X128821428Y-115607142D02*
X129107142Y-115607142D01*
X129392857Y-115750000D01*
X129535714Y-115892857D01*
X129678571Y-116178571D01*
X129821428Y-116750000D01*
X129821428Y-117464285D01*
X129678571Y-118035714D01*
X129535714Y-118321428D01*
X129392857Y-118464285D01*
X129107142Y-118607142D01*
X128821428Y-118607142D01*
X128535714Y-118464285D01*
X128392857Y-118321428D01*
X128250000Y-118035714D01*
X128107142Y-117464285D01*
X128107142Y-116750000D01*
X128250000Y-116178571D01*
X128392857Y-115892857D01*
X128535714Y-115750000D01*
X128821428Y-115607142D01*
D11*
%TO.C,D18*%
X139750000Y-101000000D02*
X144250000Y-101000000D01*
X139750000Y-103000000D02*
X144250000Y-103000000D01*
D12*
X141250000Y-102000000D02*
X141650000Y-102000000D01*
X141650000Y-102000000D02*
X141650000Y-101450000D01*
X141650000Y-102000000D02*
X141650000Y-102550000D01*
X141650000Y-102000000D02*
X142250000Y-101600000D01*
X142250000Y-101600000D02*
X142250000Y-102400000D01*
X142250000Y-102400000D02*
X141650000Y-102000000D01*
X142250000Y-102000000D02*
X142750000Y-102000000D01*
D11*
X139750000Y-101000000D02*
X139750000Y-103000000D01*
X144250000Y-101000000D02*
X144250000Y-103000000D01*
%TO.C,D17*%
X139750000Y-84000000D02*
X144250000Y-84000000D01*
X139750000Y-86000000D02*
X144250000Y-86000000D01*
D12*
X141250000Y-85000000D02*
X141650000Y-85000000D01*
X141650000Y-85000000D02*
X141650000Y-84450000D01*
X141650000Y-85000000D02*
X141650000Y-85550000D01*
X141650000Y-85000000D02*
X142250000Y-84600000D01*
X142250000Y-84600000D02*
X142250000Y-85400000D01*
X142250000Y-85400000D02*
X141650000Y-85000000D01*
X142250000Y-85000000D02*
X142750000Y-85000000D01*
D11*
X139750000Y-84000000D02*
X139750000Y-86000000D01*
X144250000Y-84000000D02*
X144250000Y-86000000D01*
%TO.C,D15*%
X121750000Y-96000000D02*
X126250000Y-96000000D01*
X121750000Y-98000000D02*
X126250000Y-98000000D01*
D12*
X123250000Y-97000000D02*
X123650000Y-97000000D01*
X123650000Y-97000000D02*
X123650000Y-96450000D01*
X123650000Y-97000000D02*
X123650000Y-97550000D01*
X123650000Y-97000000D02*
X124250000Y-96600000D01*
X124250000Y-96600000D02*
X124250000Y-97400000D01*
X124250000Y-97400000D02*
X123650000Y-97000000D01*
X124250000Y-97000000D02*
X124750000Y-97000000D01*
D11*
X121750000Y-96000000D02*
X121750000Y-98000000D01*
X126250000Y-96000000D02*
X126250000Y-98000000D01*
%TO.C,D14*%
X121750000Y-79000000D02*
X126250000Y-79000000D01*
X121750000Y-81000000D02*
X126250000Y-81000000D01*
D12*
X123250000Y-80000000D02*
X123650000Y-80000000D01*
X123650000Y-80000000D02*
X123650000Y-79450000D01*
X123650000Y-80000000D02*
X123650000Y-80550000D01*
X123650000Y-80000000D02*
X124250000Y-79600000D01*
X124250000Y-79600000D02*
X124250000Y-80400000D01*
X124250000Y-80400000D02*
X123650000Y-80000000D01*
X124250000Y-80000000D02*
X124750000Y-80000000D01*
D11*
X121750000Y-79000000D02*
X121750000Y-81000000D01*
X126250000Y-79000000D02*
X126250000Y-81000000D01*
%TO.C,D13*%
X121750000Y-62000000D02*
X126250000Y-62000000D01*
X121750000Y-64000000D02*
X126250000Y-64000000D01*
D12*
X123250000Y-63000000D02*
X123650000Y-63000000D01*
X123650000Y-63000000D02*
X123650000Y-62450000D01*
X123650000Y-63000000D02*
X123650000Y-63550000D01*
X123650000Y-63000000D02*
X124250000Y-62600000D01*
X124250000Y-62600000D02*
X124250000Y-63400000D01*
X124250000Y-63400000D02*
X123650000Y-63000000D01*
X124250000Y-63000000D02*
X124750000Y-63000000D01*
D11*
X121750000Y-62000000D02*
X121750000Y-64000000D01*
X126250000Y-62000000D02*
X126250000Y-64000000D01*
%TO.C,D12*%
X94250000Y-113000000D02*
X98750000Y-113000000D01*
X94250000Y-115000000D02*
X98750000Y-115000000D01*
D12*
X95750000Y-114000000D02*
X96150000Y-114000000D01*
X96150000Y-114000000D02*
X96150000Y-113450000D01*
X96150000Y-114000000D02*
X96150000Y-114550000D01*
X96150000Y-114000000D02*
X96750000Y-113600000D01*
X96750000Y-113600000D02*
X96750000Y-114400000D01*
X96750000Y-114400000D02*
X96150000Y-114000000D01*
X96750000Y-114000000D02*
X97250000Y-114000000D01*
D11*
X94250000Y-113000000D02*
X94250000Y-115000000D01*
X98750000Y-113000000D02*
X98750000Y-115000000D01*
%TO.C,D11*%
X103750000Y-92000000D02*
X108250000Y-92000000D01*
X103750000Y-94000000D02*
X108250000Y-94000000D01*
D12*
X105250000Y-93000000D02*
X105650000Y-93000000D01*
X105650000Y-93000000D02*
X105650000Y-92450000D01*
X105650000Y-93000000D02*
X105650000Y-93550000D01*
X105650000Y-93000000D02*
X106250000Y-92600000D01*
X106250000Y-92600000D02*
X106250000Y-93400000D01*
X106250000Y-93400000D02*
X105650000Y-93000000D01*
X106250000Y-93000000D02*
X106750000Y-93000000D01*
D11*
X103750000Y-92000000D02*
X103750000Y-94000000D01*
X108250000Y-92000000D02*
X108250000Y-94000000D01*
%TO.C,D10*%
X103750000Y-75000000D02*
X108250000Y-75000000D01*
X103750000Y-77000000D02*
X108250000Y-77000000D01*
D12*
X105250000Y-76000000D02*
X105650000Y-76000000D01*
X105650000Y-76000000D02*
X105650000Y-75450000D01*
X105650000Y-76000000D02*
X105650000Y-76550000D01*
X105650000Y-76000000D02*
X106250000Y-75600000D01*
X106250000Y-75600000D02*
X106250000Y-76400000D01*
X106250000Y-76400000D02*
X105650000Y-76000000D01*
X106250000Y-76000000D02*
X106750000Y-76000000D01*
D11*
X103750000Y-75000000D02*
X103750000Y-77000000D01*
X108250000Y-75000000D02*
X108250000Y-77000000D01*
D13*
%TO.C,U1*%
X57341083Y-102853715D02*
X47137342Y-71449829D01*
X59756766Y-102068812D02*
X57341083Y-102853715D01*
X49553025Y-70664926D02*
X59756766Y-102068812D01*
X47137342Y-71449829D02*
X49553025Y-70664926D01*
X42866003Y-107556954D02*
X32662261Y-76153067D01*
X45281686Y-106772050D02*
X42866003Y-107556954D01*
X35077945Y-75368164D02*
X45281686Y-106772050D01*
X32662261Y-76153067D02*
X35077945Y-75368164D01*
D11*
%TO.C,Reset1*%
X69200000Y-112200000D02*
X69200000Y-102800000D01*
X69200000Y-102800000D02*
X61800000Y-102800000D01*
X61800000Y-102800000D02*
X61800000Y-112200000D01*
X61800000Y-112200000D02*
X69200000Y-112200000D01*
%TO.C,Power1*%
X67919373Y-67304692D02*
X66374288Y-62549410D01*
X77429938Y-64214522D02*
X67919373Y-67304692D01*
X75884853Y-59459240D02*
X77429938Y-64214522D01*
X66374288Y-62549410D02*
X75884853Y-59459240D01*
D13*
%TO.C,K18*%
X143000000Y-110700000D02*
G75*
G03*
X144500000Y-109200000I0J1500000D01*
G01*
X144500000Y-113200000D02*
G75*
G03*
X144000000Y-113700000I0J-500000D01*
G01*
X144500000Y-109200000D02*
X144500000Y-108500000D01*
X144500000Y-108500000D02*
X149000000Y-108500000D01*
X143500000Y-115200000D02*
X144000000Y-114700000D01*
X144000000Y-113700000D02*
X144000000Y-114700000D01*
X149000000Y-113200000D02*
X144500000Y-113200000D01*
X140000000Y-111200000D02*
X140500000Y-110700000D01*
X149000000Y-112600000D02*
X149000000Y-113200000D01*
X140500000Y-110700000D02*
X143000000Y-110700000D01*
X140000000Y-114700000D02*
X140500000Y-115200000D01*
X140500000Y-115200000D02*
X143500000Y-115200000D01*
X149000000Y-108500000D02*
X149000000Y-109000000D01*
%TO.C,K17*%
X143000000Y-93700000D02*
G75*
G03*
X144500000Y-92200000I0J1500000D01*
G01*
X144500000Y-96200000D02*
G75*
G03*
X144000000Y-96700000I0J-500000D01*
G01*
X144500000Y-92200000D02*
X144500000Y-91500000D01*
X144500000Y-91500000D02*
X149000000Y-91500000D01*
X143500000Y-98200000D02*
X144000000Y-97700000D01*
X144000000Y-96700000D02*
X144000000Y-97700000D01*
X149000000Y-96200000D02*
X144500000Y-96200000D01*
X140000000Y-94200000D02*
X140500000Y-93700000D01*
X149000000Y-95600000D02*
X149000000Y-96200000D01*
X140500000Y-93700000D02*
X143000000Y-93700000D01*
X140000000Y-97700000D02*
X140500000Y-98200000D01*
X140500000Y-98200000D02*
X143500000Y-98200000D01*
X149000000Y-91500000D02*
X149000000Y-92000000D01*
%TO.C,K15*%
X125000000Y-105700000D02*
G75*
G03*
X126500000Y-104200000I0J1500000D01*
G01*
X126500000Y-108200000D02*
G75*
G03*
X126000000Y-108700000I0J-500000D01*
G01*
X126500000Y-104200000D02*
X126500000Y-103500000D01*
X126500000Y-103500000D02*
X131000000Y-103500000D01*
X125500000Y-110200000D02*
X126000000Y-109700000D01*
X126000000Y-108700000D02*
X126000000Y-109700000D01*
X131000000Y-108200000D02*
X126500000Y-108200000D01*
X122000000Y-106200000D02*
X122500000Y-105700000D01*
X131000000Y-107600000D02*
X131000000Y-108200000D01*
X122500000Y-105700000D02*
X125000000Y-105700000D01*
X122000000Y-109700000D02*
X122500000Y-110200000D01*
X122500000Y-110200000D02*
X125500000Y-110200000D01*
X131000000Y-103500000D02*
X131000000Y-104000000D01*
%TO.C,K14*%
X125000000Y-88700000D02*
G75*
G03*
X126500000Y-87200000I0J1500000D01*
G01*
X126500000Y-91200000D02*
G75*
G03*
X126000000Y-91700000I0J-500000D01*
G01*
X126500000Y-87200000D02*
X126500000Y-86500000D01*
X126500000Y-86500000D02*
X131000000Y-86500000D01*
X125500000Y-93200000D02*
X126000000Y-92700000D01*
X126000000Y-91700000D02*
X126000000Y-92700000D01*
X131000000Y-91200000D02*
X126500000Y-91200000D01*
X122000000Y-89200000D02*
X122500000Y-88700000D01*
X131000000Y-90600000D02*
X131000000Y-91200000D01*
X122500000Y-88700000D02*
X125000000Y-88700000D01*
X122000000Y-92700000D02*
X122500000Y-93200000D01*
X122500000Y-93200000D02*
X125500000Y-93200000D01*
X131000000Y-86500000D02*
X131000000Y-87000000D01*
%TO.C,K13*%
X125000000Y-71700000D02*
G75*
G03*
X126500000Y-70200000I0J1500000D01*
G01*
X126500000Y-74200000D02*
G75*
G03*
X126000000Y-74700000I0J-500000D01*
G01*
X126500000Y-70200000D02*
X126500000Y-69500000D01*
X126500000Y-69500000D02*
X131000000Y-69500000D01*
X125500000Y-76200000D02*
X126000000Y-75700000D01*
X126000000Y-74700000D02*
X126000000Y-75700000D01*
X131000000Y-74200000D02*
X126500000Y-74200000D01*
X122000000Y-72200000D02*
X122500000Y-71700000D01*
X131000000Y-73600000D02*
X131000000Y-74200000D01*
X122500000Y-71700000D02*
X125000000Y-71700000D01*
X122000000Y-75700000D02*
X122500000Y-76200000D01*
X122500000Y-76200000D02*
X125500000Y-76200000D01*
X131000000Y-69500000D02*
X131000000Y-70000000D01*
%TO.C,K12*%
X97500000Y-122700000D02*
G75*
G03*
X99000000Y-121200000I0J1500000D01*
G01*
X99000000Y-125200000D02*
G75*
G03*
X98500000Y-125700000I0J-500000D01*
G01*
X99000000Y-121200000D02*
X99000000Y-120500000D01*
X99000000Y-120500000D02*
X103500000Y-120500000D01*
X98000000Y-127200000D02*
X98500000Y-126700000D01*
X98500000Y-125700000D02*
X98500000Y-126700000D01*
X103500000Y-125200000D02*
X99000000Y-125200000D01*
X94500000Y-123200000D02*
X95000000Y-122700000D01*
X103500000Y-124600000D02*
X103500000Y-125200000D01*
X95000000Y-122700000D02*
X97500000Y-122700000D01*
X94500000Y-126700000D02*
X95000000Y-127200000D01*
X95000000Y-127200000D02*
X98000000Y-127200000D01*
X103500000Y-120500000D02*
X103500000Y-121000000D01*
%TO.C,K11*%
X107000000Y-101700000D02*
G75*
G03*
X108500000Y-100200000I0J1500000D01*
G01*
X108500000Y-104200000D02*
G75*
G03*
X108000000Y-104700000I0J-500000D01*
G01*
X108500000Y-100200000D02*
X108500000Y-99500000D01*
X108500000Y-99500000D02*
X113000000Y-99500000D01*
X107500000Y-106200000D02*
X108000000Y-105700000D01*
X108000000Y-104700000D02*
X108000000Y-105700000D01*
X113000000Y-104200000D02*
X108500000Y-104200000D01*
X104000000Y-102200000D02*
X104500000Y-101700000D01*
X113000000Y-103600000D02*
X113000000Y-104200000D01*
X104500000Y-101700000D02*
X107000000Y-101700000D01*
X104000000Y-105700000D02*
X104500000Y-106200000D01*
X104500000Y-106200000D02*
X107500000Y-106200000D01*
X113000000Y-99500000D02*
X113000000Y-100000000D01*
%TO.C,K10*%
X107000000Y-84700000D02*
G75*
G03*
X108500000Y-83200000I0J1500000D01*
G01*
X108500000Y-87200000D02*
G75*
G03*
X108000000Y-87700000I0J-500000D01*
G01*
X108500000Y-83200000D02*
X108500000Y-82500000D01*
X108500000Y-82500000D02*
X113000000Y-82500000D01*
X107500000Y-89200000D02*
X108000000Y-88700000D01*
X108000000Y-87700000D02*
X108000000Y-88700000D01*
X113000000Y-87200000D02*
X108500000Y-87200000D01*
X104000000Y-85200000D02*
X104500000Y-84700000D01*
X113000000Y-86600000D02*
X113000000Y-87200000D01*
X104500000Y-84700000D02*
X107000000Y-84700000D01*
X104000000Y-88700000D02*
X104500000Y-89200000D01*
X104500000Y-89200000D02*
X107500000Y-89200000D01*
X113000000Y-82500000D02*
X113000000Y-83000000D01*
%TO.C,K9*%
X107000000Y-67700000D02*
G75*
G03*
X108500000Y-66200000I0J1500000D01*
G01*
X108500000Y-70200000D02*
G75*
G03*
X108000000Y-70700000I0J-500000D01*
G01*
X108500000Y-66200000D02*
X108500000Y-65500000D01*
X108500000Y-65500000D02*
X113000000Y-65500000D01*
X107500000Y-72200000D02*
X108000000Y-71700000D01*
X108000000Y-70700000D02*
X108000000Y-71700000D01*
X113000000Y-70200000D02*
X108500000Y-70200000D01*
X104000000Y-68200000D02*
X104500000Y-67700000D01*
X113000000Y-69600000D02*
X113000000Y-70200000D01*
X104500000Y-67700000D02*
X107000000Y-67700000D01*
X104000000Y-71700000D02*
X104500000Y-72200000D01*
X104500000Y-72200000D02*
X107500000Y-72200000D01*
X113000000Y-65500000D02*
X113000000Y-66000000D01*
%TO.C,K8*%
X78566496Y-123698013D02*
G75*
G03*
X79813377Y-121981828I-234652J1481533D01*
G01*
X80439115Y-125932582D02*
G75*
G03*
X80023488Y-126504643I78217J-493844D01*
G01*
X79813377Y-121981828D02*
X79703873Y-121290446D01*
X79703873Y-121290446D02*
X84148470Y-120586491D01*
X79764295Y-128064393D02*
X80179922Y-127492331D01*
X80023488Y-126504643D02*
X80179922Y-127492331D01*
X84883712Y-125228626D02*
X80439115Y-125932582D01*
X75681648Y-124661160D02*
X76097275Y-124089099D01*
X84789851Y-124636013D02*
X84883712Y-125228626D01*
X76097275Y-124089099D02*
X78566496Y-123698012D01*
X76229169Y-128118069D02*
X76801230Y-128533696D01*
X76801230Y-128533696D02*
X79764295Y-128064393D01*
X84148470Y-120586491D02*
X84226687Y-121080335D01*
%TO.C,K7*%
X89000000Y-105700000D02*
G75*
G03*
X90500000Y-104200000I0J1500000D01*
G01*
X90500000Y-108200000D02*
G75*
G03*
X90000000Y-108700000I0J-500000D01*
G01*
X90500000Y-104200000D02*
X90500000Y-103500000D01*
X90500000Y-103500000D02*
X95000000Y-103500000D01*
X89500000Y-110200000D02*
X90000000Y-109700000D01*
X90000000Y-108700000D02*
X90000000Y-109700000D01*
X95000000Y-108200000D02*
X90500000Y-108200000D01*
X86000000Y-106200000D02*
X86500000Y-105700000D01*
X95000000Y-107600000D02*
X95000000Y-108200000D01*
X86500000Y-105700000D02*
X89000000Y-105700000D01*
X86000000Y-109700000D02*
X86500000Y-110200000D01*
X86500000Y-110200000D02*
X89500000Y-110200000D01*
X95000000Y-103500000D02*
X95000000Y-104000000D01*
%TO.C,K6*%
X89000000Y-88700000D02*
G75*
G03*
X90500000Y-87200000I0J1500000D01*
G01*
X90500000Y-91200000D02*
G75*
G03*
X90000000Y-91700000I0J-500000D01*
G01*
X90500000Y-87200000D02*
X90500000Y-86500000D01*
X90500000Y-86500000D02*
X95000000Y-86500000D01*
X89500000Y-93200000D02*
X90000000Y-92700000D01*
X90000000Y-91700000D02*
X90000000Y-92700000D01*
X95000000Y-91200000D02*
X90500000Y-91200000D01*
X86000000Y-89200000D02*
X86500000Y-88700000D01*
X95000000Y-90600000D02*
X95000000Y-91200000D01*
X86500000Y-88700000D02*
X89000000Y-88700000D01*
X86000000Y-92700000D02*
X86500000Y-93200000D01*
X86500000Y-93200000D02*
X89500000Y-93200000D01*
X95000000Y-86500000D02*
X95000000Y-87000000D01*
%TO.C,K5*%
X89000000Y-71700000D02*
G75*
G03*
X90500000Y-70200000I0J1500000D01*
G01*
X90500000Y-74200000D02*
G75*
G03*
X90000000Y-74700000I0J-500000D01*
G01*
X90500000Y-70200000D02*
X90500000Y-69500000D01*
X90500000Y-69500000D02*
X95000000Y-69500000D01*
X89500000Y-76200000D02*
X90000000Y-75700000D01*
X90000000Y-74700000D02*
X90000000Y-75700000D01*
X95000000Y-74200000D02*
X90500000Y-74200000D01*
X86000000Y-72200000D02*
X86500000Y-71700000D01*
X95000000Y-73600000D02*
X95000000Y-74200000D01*
X86500000Y-71700000D02*
X89000000Y-71700000D01*
X86000000Y-75700000D02*
X86500000Y-76200000D01*
X86500000Y-76200000D02*
X89500000Y-76200000D01*
X95000000Y-69500000D02*
X95000000Y-70000000D01*
%TO.C,K4*%
X59994419Y-127609892D02*
G75*
G03*
X60957479Y-125719782I-463525J1426585D01*
G01*
X62193546Y-129524008D02*
G75*
G03*
X61872527Y-130154045I154509J-475528D01*
G01*
X60957479Y-125719782D02*
X60741167Y-125054042D01*
X60741167Y-125054042D02*
X65020921Y-123663466D01*
X61860524Y-131735138D02*
X62181544Y-131105101D01*
X61872527Y-130154045D02*
X62181544Y-131105101D01*
X66473301Y-128133431D02*
X62193547Y-129524008D01*
X57295758Y-129012471D02*
X57616778Y-128382435D01*
X66287891Y-127562798D02*
X66473301Y-128133431D01*
X57616778Y-128382435D02*
X59994419Y-127609892D01*
X58377318Y-132341169D02*
X59007355Y-132662189D01*
X59007355Y-132662189D02*
X61860524Y-131735138D01*
X65020921Y-123663466D02*
X65175430Y-124138994D01*
%TO.C,K2*%
X71000000Y-97200000D02*
G75*
G03*
X72500000Y-95700000I0J1500000D01*
G01*
X72500000Y-99700000D02*
G75*
G03*
X72000000Y-100200000I0J-500000D01*
G01*
X72500000Y-95700000D02*
X72500000Y-95000000D01*
X72500000Y-95000000D02*
X77000000Y-95000000D01*
X71500000Y-101700000D02*
X72000000Y-101200000D01*
X72000000Y-100200000D02*
X72000000Y-101200000D01*
X77000000Y-99700000D02*
X72500000Y-99700000D01*
X68000000Y-97700000D02*
X68500000Y-97200000D01*
X77000000Y-99100000D02*
X77000000Y-99700000D01*
X68500000Y-97200000D02*
X71000000Y-97200000D01*
X68000000Y-101200000D02*
X68500000Y-101700000D01*
X68500000Y-101700000D02*
X71500000Y-101700000D01*
X77000000Y-95000000D02*
X77000000Y-95500000D01*
%TO.C,K1*%
X71000000Y-80200000D02*
G75*
G03*
X72500000Y-78700000I0J1500000D01*
G01*
X72500000Y-82700000D02*
G75*
G03*
X72000000Y-83200000I0J-500000D01*
G01*
X72500000Y-78700000D02*
X72500000Y-78000000D01*
X72500000Y-78000000D02*
X77000000Y-78000000D01*
X71500000Y-84700000D02*
X72000000Y-84200000D01*
X72000000Y-83200000D02*
X72000000Y-84200000D01*
X77000000Y-82700000D02*
X72500000Y-82700000D01*
X68000000Y-80700000D02*
X68500000Y-80200000D01*
X77000000Y-82100000D02*
X77000000Y-82700000D01*
X68500000Y-80200000D02*
X71000000Y-80200000D01*
X68000000Y-84200000D02*
X68500000Y-84700000D01*
X68500000Y-84700000D02*
X71500000Y-84700000D01*
X77000000Y-78000000D02*
X77000000Y-78500000D01*
D11*
%TO.C,J1*%
X47973671Y-109704329D02*
X47510146Y-108277744D01*
X42837966Y-111373020D02*
X44121893Y-110955847D01*
X49447809Y-109225352D02*
X48984284Y-107798768D01*
X49447809Y-109225352D02*
X51050339Y-108704659D01*
X45691136Y-110445969D02*
X47973671Y-109704329D01*
X51444569Y-114885339D02*
X41491763Y-118119202D01*
X39637661Y-112412863D02*
X41268723Y-111882898D01*
X41337254Y-117643673D02*
X41491763Y-118119202D01*
X52904441Y-114410998D02*
X51050339Y-108704659D01*
X39637661Y-112412863D02*
X39792170Y-112888391D01*
X47973671Y-109704329D02*
X47510146Y-108277744D01*
X51444569Y-114885339D02*
X41491763Y-118119202D01*
X45691136Y-110445969D02*
X47973671Y-109704329D01*
X42837966Y-111373020D02*
X44121893Y-110955847D01*
X39637661Y-112412863D02*
X41268723Y-111882898D01*
X39637661Y-112412863D02*
X39792170Y-112888391D01*
X41337254Y-117643673D02*
X41491763Y-118119202D01*
%TO.C,D9*%
X103750000Y-58000000D02*
X108250000Y-58000000D01*
X103750000Y-60000000D02*
X108250000Y-60000000D01*
D12*
X105250000Y-59000000D02*
X105650000Y-59000000D01*
X105650000Y-59000000D02*
X105650000Y-58450000D01*
X105650000Y-59000000D02*
X105650000Y-59550000D01*
X105650000Y-59000000D02*
X106250000Y-58600000D01*
X106250000Y-58600000D02*
X106250000Y-59400000D01*
X106250000Y-59400000D02*
X105650000Y-59000000D01*
X106250000Y-59000000D02*
X106750000Y-59000000D01*
D11*
X103750000Y-58000000D02*
X103750000Y-60000000D01*
X108250000Y-58000000D02*
X108250000Y-60000000D01*
%TO.C,D8*%
X73821267Y-114564289D02*
X78265864Y-113860334D01*
X74134136Y-116539666D02*
X78578733Y-115835711D01*
D12*
X75459234Y-115317326D02*
X75854309Y-115254752D01*
X75854309Y-115254752D02*
X75768270Y-114711523D01*
X75854309Y-115254752D02*
X75940348Y-115797981D01*
X75854309Y-115254752D02*
X76384348Y-114765816D01*
X76384348Y-114765816D02*
X76509496Y-115555967D01*
X76509496Y-115555967D02*
X75854309Y-115254752D01*
X76446922Y-115160891D02*
X76940766Y-115082674D01*
D11*
X73821267Y-114564289D02*
X74134136Y-116539666D01*
X78265864Y-113860334D02*
X78578733Y-115835711D01*
%TO.C,D7*%
X85750000Y-96000000D02*
X90250000Y-96000000D01*
X85750000Y-98000000D02*
X90250000Y-98000000D01*
D12*
X87250000Y-97000000D02*
X87650000Y-97000000D01*
X87650000Y-97000000D02*
X87650000Y-96450000D01*
X87650000Y-97000000D02*
X87650000Y-97550000D01*
X87650000Y-97000000D02*
X88250000Y-96600000D01*
X88250000Y-96600000D02*
X88250000Y-97400000D01*
X88250000Y-97400000D02*
X87650000Y-97000000D01*
X88250000Y-97000000D02*
X88750000Y-97000000D01*
D11*
X85750000Y-96000000D02*
X85750000Y-98000000D01*
X90250000Y-96000000D02*
X90250000Y-98000000D01*
%TO.C,D6*%
X85750000Y-79000000D02*
X90250000Y-79000000D01*
X85750000Y-81000000D02*
X90250000Y-81000000D01*
D12*
X87250000Y-80000000D02*
X87650000Y-80000000D01*
X87650000Y-80000000D02*
X87650000Y-79450000D01*
X87650000Y-80000000D02*
X87650000Y-80550000D01*
X87650000Y-80000000D02*
X88250000Y-79600000D01*
X88250000Y-79600000D02*
X88250000Y-80400000D01*
X88250000Y-80400000D02*
X87650000Y-80000000D01*
X88250000Y-80000000D02*
X88750000Y-80000000D01*
D11*
X85750000Y-79000000D02*
X85750000Y-81000000D01*
X90250000Y-79000000D02*
X90250000Y-81000000D01*
%TO.C,D5*%
X85750000Y-62000000D02*
X90250000Y-62000000D01*
X85750000Y-64000000D02*
X90250000Y-64000000D01*
D12*
X87250000Y-63000000D02*
X87650000Y-63000000D01*
X87650000Y-63000000D02*
X87650000Y-62450000D01*
X87650000Y-63000000D02*
X87650000Y-63550000D01*
X87650000Y-63000000D02*
X88250000Y-62600000D01*
X88250000Y-62600000D02*
X88250000Y-63400000D01*
X88250000Y-63400000D02*
X87650000Y-63000000D01*
X88250000Y-63000000D02*
X88750000Y-63000000D01*
D11*
X85750000Y-62000000D02*
X85750000Y-64000000D01*
X90250000Y-62000000D02*
X90250000Y-64000000D01*
%TO.C,D4*%
X53951106Y-119544232D02*
X58230860Y-118153655D01*
X54569140Y-121446345D02*
X58848894Y-120055768D01*
D12*
X55686708Y-120031763D02*
X56067130Y-119908156D01*
X56067130Y-119908156D02*
X55897171Y-119385075D01*
X56067130Y-119908156D02*
X56237090Y-120431237D01*
X56067130Y-119908156D02*
X56514157Y-119342323D01*
X56514157Y-119342323D02*
X56761371Y-120103168D01*
X56761371Y-120103168D02*
X56067130Y-119908156D01*
X56637764Y-119722746D02*
X57113292Y-119568237D01*
D11*
X53951106Y-119544232D02*
X54569140Y-121446345D01*
X58230860Y-118153655D02*
X58848894Y-120055768D01*
%TO.C,D2*%
X67750000Y-87500000D02*
X72250000Y-87500000D01*
X67750000Y-89500000D02*
X72250000Y-89500000D01*
D12*
X69250000Y-88500000D02*
X69650000Y-88500000D01*
X69650000Y-88500000D02*
X69650000Y-87950000D01*
X69650000Y-88500000D02*
X69650000Y-89050000D01*
X69650000Y-88500000D02*
X70250000Y-88100000D01*
X70250000Y-88100000D02*
X70250000Y-88900000D01*
X70250000Y-88900000D02*
X69650000Y-88500000D01*
X70250000Y-88500000D02*
X70750000Y-88500000D01*
D11*
X67750000Y-87500000D02*
X67750000Y-89500000D01*
X72250000Y-87500000D02*
X72250000Y-89500000D01*
%TO.C,D1*%
X67750000Y-70500000D02*
X72250000Y-70500000D01*
X67750000Y-72500000D02*
X72250000Y-72500000D01*
D12*
X69250000Y-71500000D02*
X69650000Y-71500000D01*
X69650000Y-71500000D02*
X69650000Y-70950000D01*
X69650000Y-71500000D02*
X69650000Y-72050000D01*
X69650000Y-71500000D02*
X70250000Y-71100000D01*
X70250000Y-71100000D02*
X70250000Y-71900000D01*
X70250000Y-71900000D02*
X69650000Y-71500000D01*
X70250000Y-71500000D02*
X70750000Y-71500000D01*
D11*
X67750000Y-70500000D02*
X67750000Y-72500000D01*
X72250000Y-70500000D02*
X72250000Y-72500000D01*
%TO.C,U1*%
D14*
X46048163Y-73082752D02*
X46127132Y-73094646D01*
X46160813Y-73121255D01*
X46205530Y-73181830D01*
X46238639Y-73283729D01*
X46238067Y-73359019D01*
X46226459Y-73400343D01*
X46192207Y-73449024D01*
X46011053Y-73507884D01*
X45779291Y-72794592D01*
X45937800Y-72743089D01*
X45994125Y-72762340D01*
X46027805Y-72788949D01*
X46072522Y-72849524D01*
X46094595Y-72917457D01*
X46094023Y-72992747D01*
X46082415Y-73034071D01*
X46048163Y-73082752D01*
X45889654Y-73134255D01*
X46397719Y-73156936D02*
X46624162Y-73083360D01*
X46418649Y-73375448D02*
X46345396Y-72610653D01*
X46735668Y-73272443D01*
X46594482Y-72529720D02*
X46866212Y-72441430D01*
X46962110Y-73198867D02*
X46730347Y-72485575D01*
X47168194Y-72831489D02*
X47530501Y-72713768D01*
X31473697Y-77818283D02*
X31552666Y-77830177D01*
X31586347Y-77856786D01*
X31631064Y-77917361D01*
X31664173Y-78019260D01*
X31663601Y-78094550D01*
X31651993Y-78135874D01*
X31617741Y-78184555D01*
X31436587Y-78243415D01*
X31204825Y-77530123D01*
X31363334Y-77478620D01*
X31419659Y-77497871D01*
X31453339Y-77524480D01*
X31498056Y-77585055D01*
X31520129Y-77652988D01*
X31519557Y-77728278D01*
X31507949Y-77769602D01*
X31473697Y-77818283D01*
X31315188Y-77869786D01*
X31823253Y-77892467D02*
X32049696Y-77818891D01*
X31844183Y-78110979D02*
X31770930Y-77346184D01*
X32161202Y-78007974D01*
X32020016Y-77265251D02*
X32291746Y-77176961D01*
X32387644Y-77934398D02*
X32155881Y-77221106D01*
X32593728Y-77567020D02*
X32956035Y-77449299D01*
X32863172Y-77779890D02*
X32686591Y-77236429D01*
D13*
D14*
X32777383Y-80478479D02*
X32508510Y-80190319D01*
X32505652Y-80566769D02*
X32273889Y-79853477D01*
X32455043Y-79794617D01*
X32511368Y-79813868D01*
X32545048Y-79840477D01*
X32589765Y-79901052D01*
X32622874Y-80002951D01*
X32622303Y-80078241D01*
X32610695Y-80119565D01*
X32576443Y-80168246D01*
X32395289Y-80227106D01*
X32892318Y-80215821D02*
X33118760Y-80142245D01*
X32913248Y-80434334D02*
X32839995Y-79669538D01*
X33230267Y-80331328D01*
X33111725Y-79581248D02*
X33456709Y-80257752D01*
X33381741Y-79718828D01*
X33637862Y-80198892D01*
X33519321Y-79448812D01*
X47270828Y-75769273D02*
X47044386Y-75842849D01*
X46812623Y-75129556D01*
X47307938Y-75344141D02*
X47466447Y-75292638D01*
X47655779Y-75644195D02*
X47429337Y-75717770D01*
X47197574Y-75004478D01*
X47424017Y-74930903D01*
X47859577Y-75577977D02*
X47627814Y-74864685D01*
X47741035Y-74827897D01*
X47820004Y-74839791D01*
X47887365Y-74893008D01*
X47932082Y-74953583D01*
X47998872Y-75082091D01*
X48031981Y-75183990D01*
X48053482Y-75327213D01*
X48052910Y-75402503D01*
X48029694Y-75485150D01*
X47972798Y-75541189D01*
X47859577Y-75577977D01*
X33307594Y-82225872D02*
X33251269Y-82206621D01*
X33183337Y-82228693D01*
X33126440Y-82284732D01*
X33103224Y-82367380D01*
X33102653Y-82442670D01*
X33124154Y-82585893D01*
X33157263Y-82687792D01*
X33224052Y-82816300D01*
X33268769Y-82876875D01*
X33336130Y-82930092D01*
X33415099Y-82941986D01*
X33460388Y-82927271D01*
X33517284Y-82871232D01*
X33528892Y-82829908D01*
X33451638Y-82592144D01*
X33361061Y-82621574D01*
X33754762Y-82831623D02*
X33523000Y-82118330D01*
X34026493Y-82743332D01*
X33794730Y-82030040D01*
X34252935Y-82669757D02*
X34021172Y-81956464D01*
X34134393Y-81919677D01*
X34213362Y-81931570D01*
X34280723Y-81984788D01*
X34325440Y-82045363D01*
X34392229Y-82173870D01*
X34425338Y-82275769D01*
X34446839Y-82418992D01*
X34446268Y-82494282D01*
X34423052Y-82576930D01*
X34366156Y-82632969D01*
X34252935Y-82669757D01*
X47501768Y-78352332D02*
X47270005Y-77639040D01*
X47383226Y-77602252D01*
X47462195Y-77614146D01*
X47529556Y-77667363D01*
X47574273Y-77727938D01*
X47641063Y-77856446D01*
X47674172Y-77958345D01*
X47695673Y-78101568D01*
X47695101Y-78176858D01*
X47671885Y-78259505D01*
X47614989Y-78315544D01*
X47501768Y-78352332D01*
X47888434Y-78001383D02*
X48114876Y-77927808D01*
X47909364Y-78219896D02*
X47836110Y-77455101D01*
X48226383Y-78116891D01*
X48085197Y-77374168D02*
X48356927Y-77285877D01*
X48452825Y-78043315D02*
X48221062Y-77330023D01*
X48658337Y-77751227D02*
X48884779Y-77677651D01*
X48679267Y-77969740D02*
X48606013Y-77204944D01*
X48996286Y-77866734D01*
X34434744Y-85348165D02*
X34165872Y-85060005D01*
X34163014Y-85436456D02*
X33931251Y-84723163D01*
X34112405Y-84664303D01*
X34168729Y-84683554D01*
X34202410Y-84710163D01*
X34247127Y-84770738D01*
X34280236Y-84872637D01*
X34279664Y-84947927D01*
X34268056Y-84989251D01*
X34233804Y-85037932D01*
X34052651Y-85096793D01*
X34604862Y-85255339D02*
X34683830Y-85267232D01*
X34797051Y-85230444D01*
X34831304Y-85181763D01*
X34842911Y-85140439D01*
X34843483Y-85065149D01*
X34821410Y-84997216D01*
X34776694Y-84936641D01*
X34743013Y-84910033D01*
X34686688Y-84890781D01*
X34585075Y-84886245D01*
X34528750Y-84866994D01*
X34495070Y-84840385D01*
X34450353Y-84779810D01*
X34428280Y-84711878D01*
X34428852Y-84636587D01*
X34440460Y-84595264D01*
X34474712Y-84546582D01*
X34587933Y-84509794D01*
X34666902Y-84521688D01*
X34791731Y-84443577D02*
X35063461Y-84355286D01*
X35159359Y-85112724D02*
X34927596Y-84399431D01*
X48606221Y-79992529D02*
X48549896Y-79973278D01*
X48481964Y-79995350D01*
X48425067Y-80051389D01*
X48401851Y-80134037D01*
X48401280Y-80209327D01*
X48422781Y-80352550D01*
X48455890Y-80454449D01*
X48522679Y-80582957D01*
X48567396Y-80643532D01*
X48634757Y-80696749D01*
X48713726Y-80708643D01*
X48759015Y-80693928D01*
X48815911Y-80637889D01*
X48827519Y-80596565D01*
X48750265Y-80358801D01*
X48659688Y-80388231D01*
X49053389Y-80598280D02*
X48821627Y-79884987D01*
X49325120Y-80509989D01*
X49093357Y-79796697D01*
X49551562Y-80436414D02*
X49319799Y-79723121D01*
X49433020Y-79686334D01*
X49511989Y-79698227D01*
X49579350Y-79751445D01*
X49624067Y-79812020D01*
X49690856Y-79940527D01*
X49723965Y-80042426D01*
X49745466Y-80185649D01*
X49744895Y-80260939D01*
X49721679Y-80343587D01*
X49664783Y-80399626D01*
X49551562Y-80436414D01*
X34594633Y-87111564D02*
X34984905Y-87773354D01*
X34911652Y-87008559D01*
X35551582Y-87514125D02*
X35539974Y-87555449D01*
X35483078Y-87611488D01*
X35437789Y-87626203D01*
X35358820Y-87614309D01*
X35291459Y-87561092D01*
X35246743Y-87500517D01*
X35179953Y-87372009D01*
X35146844Y-87270110D01*
X35125343Y-87126887D01*
X35125915Y-87051597D01*
X35149130Y-86968949D01*
X35206027Y-86912911D01*
X35251315Y-86898195D01*
X35330284Y-86910089D01*
X35363964Y-86936698D01*
X36027110Y-87359617D02*
X36015502Y-87400940D01*
X35958606Y-87456979D01*
X35913318Y-87471694D01*
X35834349Y-87459801D01*
X35766988Y-87406583D01*
X35722271Y-87346008D01*
X35655481Y-87217501D01*
X35622372Y-87115602D01*
X35600871Y-86972379D01*
X35601443Y-86897089D01*
X35624659Y-86814441D01*
X35681555Y-86758402D01*
X35726843Y-86743687D01*
X35805812Y-86755581D01*
X35839493Y-86782189D01*
X49330732Y-82427835D02*
X49274407Y-82408584D01*
X49206475Y-82430656D01*
X49149578Y-82486695D01*
X49126362Y-82569343D01*
X49125791Y-82644633D01*
X49147292Y-82787856D01*
X49180401Y-82889755D01*
X49247190Y-83018263D01*
X49291907Y-83078838D01*
X49359268Y-83132055D01*
X49438237Y-83143949D01*
X49483526Y-83129234D01*
X49540422Y-83073195D01*
X49552030Y-83031871D01*
X49474776Y-82794107D01*
X49384199Y-82823537D01*
X49777900Y-83033586D02*
X49546138Y-82320293D01*
X50049631Y-82945295D01*
X49817868Y-82232003D01*
X50276073Y-82871720D02*
X50044310Y-82158427D01*
X50157531Y-82121640D01*
X50236500Y-82133533D01*
X50303861Y-82186751D01*
X50348578Y-82247326D01*
X50415367Y-82375833D01*
X50448476Y-82477732D01*
X50469977Y-82620955D01*
X50469406Y-82696245D01*
X50446190Y-82778893D01*
X50389294Y-82834932D01*
X50276073Y-82871720D01*
X37801414Y-97516436D02*
X37789806Y-97557760D01*
X37732910Y-97613799D01*
X37687622Y-97628514D01*
X37608653Y-97616621D01*
X37541292Y-97563403D01*
X37496575Y-97502828D01*
X37429785Y-97374320D01*
X37396676Y-97272421D01*
X37375175Y-97129199D01*
X37375747Y-97053909D01*
X37398963Y-96971261D01*
X37455859Y-96915222D01*
X37501147Y-96900507D01*
X37580116Y-96912400D01*
X37613797Y-96939009D01*
X37886099Y-96775428D02*
X37976676Y-96745998D01*
X38033000Y-96765249D01*
X38100361Y-96818467D01*
X38167151Y-96946975D01*
X38244405Y-97184739D01*
X38265906Y-97327962D01*
X38242690Y-97410609D01*
X38208438Y-97459291D01*
X38117862Y-97488721D01*
X38061537Y-97469470D01*
X37994176Y-97416252D01*
X37927386Y-97287744D01*
X37850132Y-97049980D01*
X37828631Y-96906758D01*
X37851847Y-96824110D01*
X37886099Y-96775428D01*
X38751899Y-97282710D02*
X38525457Y-97356285D01*
X38293694Y-96642993D01*
X38633357Y-96532629D02*
X38927732Y-96436981D01*
X38857513Y-96760215D01*
X38925446Y-96738142D01*
X38981771Y-96757393D01*
X39015451Y-96784002D01*
X39060168Y-96844577D01*
X39115350Y-97014408D01*
X39114778Y-97089699D01*
X39103170Y-97131022D01*
X39068918Y-97179704D01*
X38933053Y-97223849D01*
X38876728Y-97204598D01*
X38843048Y-97177989D01*
X51412297Y-90487867D02*
X51143425Y-90199707D01*
X51140567Y-90576158D02*
X50908804Y-89862866D01*
X51089958Y-89804005D01*
X51146282Y-89823256D01*
X51179963Y-89849865D01*
X51224680Y-89910440D01*
X51257789Y-90012339D01*
X51257217Y-90087629D01*
X51245609Y-90128953D01*
X51211357Y-90177635D01*
X51030204Y-90236495D01*
X51474909Y-89678927D02*
X51565486Y-89649497D01*
X51621811Y-89668748D01*
X51689172Y-89721965D01*
X51755961Y-89850473D01*
X51833215Y-90088237D01*
X51854716Y-90231460D01*
X51831501Y-90314108D01*
X51797249Y-90362789D01*
X51706672Y-90392219D01*
X51650347Y-90372968D01*
X51582986Y-90319751D01*
X51516197Y-90191243D01*
X51438942Y-89953479D01*
X51417441Y-89810256D01*
X51440657Y-89727608D01*
X51474909Y-89678927D01*
X51837216Y-89561206D02*
X52182200Y-90237711D01*
X52107232Y-89698786D01*
X52363354Y-90178850D01*
X52244812Y-89428770D01*
X52516542Y-89340480D02*
X52561831Y-89325765D01*
X52618156Y-89345016D01*
X52651836Y-89371625D01*
X52696553Y-89432200D01*
X52763342Y-89560707D01*
X52818524Y-89730539D01*
X52840025Y-89873762D01*
X52839454Y-89949052D01*
X52827846Y-89990376D01*
X52793594Y-90039057D01*
X52748305Y-90053772D01*
X52691980Y-90034521D01*
X52658300Y-90007912D01*
X52613583Y-89947337D01*
X52546794Y-89818829D01*
X52491612Y-89648998D01*
X52470111Y-89505775D01*
X52470682Y-89430485D01*
X52482290Y-89389161D01*
X52516542Y-89340480D01*
X37096783Y-95024200D02*
X37085175Y-95065524D01*
X37028279Y-95121563D01*
X36982991Y-95136278D01*
X36904022Y-95124385D01*
X36836661Y-95071167D01*
X36791944Y-95010592D01*
X36725154Y-94882084D01*
X36692045Y-94780185D01*
X36670544Y-94636963D01*
X36671116Y-94561673D01*
X36694332Y-94479025D01*
X36751228Y-94422986D01*
X36796516Y-94408271D01*
X36875485Y-94420164D01*
X36909166Y-94446773D01*
X37181468Y-94283192D02*
X37272045Y-94253762D01*
X37328369Y-94273013D01*
X37395730Y-94326231D01*
X37462520Y-94454739D01*
X37539774Y-94692503D01*
X37561275Y-94835726D01*
X37538059Y-94918373D01*
X37503807Y-94967055D01*
X37413231Y-94996485D01*
X37356906Y-94977234D01*
X37289545Y-94924016D01*
X37222755Y-94795508D01*
X37145501Y-94557744D01*
X37124000Y-94414522D01*
X37147216Y-94331874D01*
X37181468Y-94283192D01*
X38047268Y-94790474D02*
X37820826Y-94864049D01*
X37589063Y-94150757D01*
X37973443Y-94100968D02*
X37985051Y-94059645D01*
X38019303Y-94010963D01*
X38132524Y-93974175D01*
X38188849Y-93993427D01*
X38222530Y-94020035D01*
X38267246Y-94080611D01*
X38289319Y-94148543D01*
X38299784Y-94257800D01*
X38160489Y-94753686D01*
X38454864Y-94658038D01*
X50886807Y-87910388D02*
X50965776Y-87922281D01*
X51078997Y-87885494D01*
X51113249Y-87836812D01*
X51124857Y-87795488D01*
X51125429Y-87720198D01*
X51103356Y-87652266D01*
X51058639Y-87591691D01*
X51024959Y-87565082D01*
X50968634Y-87545831D01*
X50867021Y-87541295D01*
X50810696Y-87522043D01*
X50777016Y-87495435D01*
X50732299Y-87434860D01*
X50710226Y-87366927D01*
X50710798Y-87291637D01*
X50722405Y-87250313D01*
X50756658Y-87201631D01*
X50869879Y-87164844D01*
X50948847Y-87176737D01*
X51623030Y-87633622D02*
X51611422Y-87674946D01*
X51554525Y-87730985D01*
X51509237Y-87745700D01*
X51430268Y-87733807D01*
X51362907Y-87680589D01*
X51318190Y-87620014D01*
X51251401Y-87491506D01*
X51218292Y-87389607D01*
X51196791Y-87246385D01*
X51197362Y-87171095D01*
X51220578Y-87088447D01*
X51277474Y-87032408D01*
X51322763Y-87017693D01*
X51401732Y-87029586D01*
X51435412Y-87056195D01*
X52075342Y-87561762D02*
X51848900Y-87635337D01*
X51617137Y-86922045D01*
X36359433Y-92593065D02*
X36347825Y-92634389D01*
X36290929Y-92690428D01*
X36245641Y-92705143D01*
X36166672Y-92693250D01*
X36099311Y-92640032D01*
X36054594Y-92579457D01*
X35987804Y-92450949D01*
X35954695Y-92349050D01*
X35933194Y-92205828D01*
X35933766Y-92130538D01*
X35956982Y-92047890D01*
X36013878Y-91991851D01*
X36059166Y-91977136D01*
X36138135Y-91989029D01*
X36171816Y-92015638D01*
X36444118Y-91852057D02*
X36534695Y-91822627D01*
X36591019Y-91841878D01*
X36658380Y-91895096D01*
X36725170Y-92023604D01*
X36802424Y-92261368D01*
X36823925Y-92404591D01*
X36800709Y-92487238D01*
X36766457Y-92535920D01*
X36675881Y-92565350D01*
X36619556Y-92546099D01*
X36552195Y-92492881D01*
X36485405Y-92364373D01*
X36408151Y-92126609D01*
X36386650Y-91983387D01*
X36409866Y-91900739D01*
X36444118Y-91852057D01*
X37309918Y-92359339D02*
X37083476Y-92432914D01*
X36851713Y-91719622D01*
X37717514Y-92226903D02*
X37445783Y-92315193D01*
X37581649Y-92271048D02*
X37349886Y-91557756D01*
X37337706Y-91674370D01*
X37314491Y-91757017D01*
X37280239Y-91805699D01*
X50090582Y-85498384D02*
X50169551Y-85510277D01*
X50282772Y-85473489D01*
X50317024Y-85424808D01*
X50328632Y-85383484D01*
X50329204Y-85308194D01*
X50307131Y-85240261D01*
X50262414Y-85179686D01*
X50228734Y-85153078D01*
X50172409Y-85133826D01*
X50070796Y-85129290D01*
X50014471Y-85110039D01*
X49980790Y-85083430D01*
X49936074Y-85022855D01*
X49914001Y-84954923D01*
X49914572Y-84879633D01*
X49926180Y-84838309D01*
X49960432Y-84789627D01*
X50073653Y-84752840D01*
X50152622Y-84764733D01*
X50577147Y-85377841D02*
X50345384Y-84664549D01*
X50458605Y-84627761D01*
X50537574Y-84639655D01*
X50604935Y-84692872D01*
X50649652Y-84753447D01*
X50716441Y-84881955D01*
X50749550Y-84983854D01*
X50771051Y-85127077D01*
X50770480Y-85202367D01*
X50747264Y-85285015D01*
X50690368Y-85341054D01*
X50577147Y-85377841D01*
X50963813Y-85026893D02*
X51190255Y-84953317D01*
X50984742Y-85245405D02*
X50911489Y-84480610D01*
X51301761Y-85142400D01*
X35532539Y-90209952D02*
X35520931Y-90251276D01*
X35464035Y-90307315D01*
X35418747Y-90322030D01*
X35339778Y-90310137D01*
X35272417Y-90256919D01*
X35227700Y-90196344D01*
X35160910Y-90067836D01*
X35127801Y-89965937D01*
X35106300Y-89822715D01*
X35106872Y-89747425D01*
X35130088Y-89664777D01*
X35186984Y-89608738D01*
X35232272Y-89594023D01*
X35311241Y-89605916D01*
X35344922Y-89632525D01*
X35617224Y-89468944D02*
X35707801Y-89439514D01*
X35764125Y-89458765D01*
X35831486Y-89511983D01*
X35898276Y-89640491D01*
X35975530Y-89878255D01*
X35997031Y-90021478D01*
X35973815Y-90104125D01*
X35939563Y-90152807D01*
X35848987Y-90182237D01*
X35792662Y-90162986D01*
X35725301Y-90109768D01*
X35658511Y-89981260D01*
X35581257Y-89743496D01*
X35559756Y-89600274D01*
X35582972Y-89517626D01*
X35617224Y-89468944D01*
X36483024Y-89976226D02*
X36256582Y-90049801D01*
X36024819Y-89336509D01*
X36500348Y-89182000D02*
X36545636Y-89167285D01*
X36601961Y-89186536D01*
X36635641Y-89213145D01*
X36680358Y-89273720D01*
X36747148Y-89402228D01*
X36802329Y-89572059D01*
X36823830Y-89715282D01*
X36823259Y-89790572D01*
X36811651Y-89831896D01*
X36777399Y-89880577D01*
X36732110Y-89895293D01*
X36675786Y-89876041D01*
X36642105Y-89849433D01*
X36597388Y-89788857D01*
X36530599Y-89660350D01*
X36475417Y-89490518D01*
X36453916Y-89347296D01*
X36454488Y-89272005D01*
X36466096Y-89230682D01*
X36500348Y-89182000D01*
X41119397Y-106772729D02*
X41198366Y-106784623D01*
X41232047Y-106811232D01*
X41276764Y-106871807D01*
X41309873Y-106973706D01*
X41309301Y-107048996D01*
X41297693Y-107090320D01*
X41263441Y-107139001D01*
X41082287Y-107197861D01*
X40850525Y-106484569D01*
X41009034Y-106433066D01*
X41065359Y-106452317D01*
X41099039Y-106478926D01*
X41143756Y-106539501D01*
X41165829Y-106607434D01*
X41165257Y-106682724D01*
X41153649Y-106724048D01*
X41119397Y-106772729D01*
X40960888Y-106824232D01*
X41529851Y-106263843D02*
X41439274Y-106293273D01*
X41405022Y-106341954D01*
X41393414Y-106383278D01*
X41381235Y-106499892D01*
X41402736Y-106643115D01*
X41491026Y-106914845D01*
X41535743Y-106975420D01*
X41569424Y-107002029D01*
X41625748Y-107021280D01*
X41716325Y-106991850D01*
X41750577Y-106943169D01*
X41762185Y-106901845D01*
X41762757Y-106826555D01*
X41707575Y-106656723D01*
X41662858Y-106596148D01*
X41629178Y-106569539D01*
X41572853Y-106550288D01*
X41482276Y-106579718D01*
X41448024Y-106628400D01*
X41436416Y-106669724D01*
X41435845Y-106745014D01*
X55630889Y-102084472D02*
X55709858Y-102096366D01*
X55743539Y-102122975D01*
X55788256Y-102183550D01*
X55821365Y-102285449D01*
X55820793Y-102360739D01*
X55809185Y-102402063D01*
X55774933Y-102450744D01*
X55593779Y-102509604D01*
X55362017Y-101796312D01*
X55520526Y-101744809D01*
X55576851Y-101764060D01*
X55610531Y-101790669D01*
X55655248Y-101851244D01*
X55677321Y-101919177D01*
X55676749Y-101994467D01*
X55665141Y-102035791D01*
X55630889Y-102084472D01*
X55472380Y-102135975D01*
X56063987Y-101568228D02*
X55837545Y-101641803D01*
X55925264Y-101988824D01*
X55936872Y-101947500D01*
X55971124Y-101898819D01*
X56084345Y-101862031D01*
X56140670Y-101881282D01*
X56174350Y-101907891D01*
X56219067Y-101968466D01*
X56274249Y-102138298D01*
X56273677Y-102213588D01*
X56262069Y-102254912D01*
X56227817Y-102303593D01*
X56114596Y-102340381D01*
X56058271Y-102321130D01*
X56024591Y-102294521D01*
X54826363Y-99608396D02*
X54905332Y-99620290D01*
X54939013Y-99646899D01*
X54983730Y-99707474D01*
X55016839Y-99809373D01*
X55016267Y-99884663D01*
X55004659Y-99925987D01*
X54970407Y-99974668D01*
X54789253Y-100033528D01*
X54557491Y-99320236D01*
X54716000Y-99268733D01*
X54772325Y-99287984D01*
X54806005Y-99314593D01*
X54850722Y-99375168D01*
X54872795Y-99443101D01*
X54872223Y-99518391D01*
X54860615Y-99559715D01*
X54826363Y-99608396D01*
X54667854Y-99659899D01*
X55314071Y-99337274D02*
X55468579Y-99812802D01*
X55112559Y-99102331D02*
X55164883Y-99648613D01*
X55459258Y-99552965D01*
X40426510Y-104316633D02*
X40505479Y-104328527D01*
X40539160Y-104355136D01*
X40583877Y-104415711D01*
X40616986Y-104517610D01*
X40616414Y-104592900D01*
X40604806Y-104634224D01*
X40570554Y-104682905D01*
X40389400Y-104741765D01*
X40157638Y-104028473D01*
X40316147Y-103976970D01*
X40372472Y-103996221D01*
X40406152Y-104022830D01*
X40450869Y-104083405D01*
X40472942Y-104151338D01*
X40472370Y-104226628D01*
X40460762Y-104267952D01*
X40426510Y-104316633D01*
X40268001Y-104368136D01*
X40632594Y-103949255D02*
X40644202Y-103907931D01*
X40678454Y-103859249D01*
X40791675Y-103822462D01*
X40848000Y-103841713D01*
X40881681Y-103868322D01*
X40926397Y-103928897D01*
X40948470Y-103996829D01*
X40958935Y-104106086D01*
X40819640Y-104601972D01*
X41114015Y-104506324D01*
X53774887Y-97759170D02*
X53506015Y-97471010D01*
X53503157Y-97847461D02*
X53271394Y-97134169D01*
X53452548Y-97075308D01*
X53508872Y-97094559D01*
X53542553Y-97121168D01*
X53587270Y-97181743D01*
X53620379Y-97283642D01*
X53619807Y-97358932D01*
X53608199Y-97400256D01*
X53573947Y-97448938D01*
X53392794Y-97507798D01*
X53837499Y-96950230D02*
X53928076Y-96920800D01*
X53984401Y-96940051D01*
X54051762Y-96993268D01*
X54118551Y-97121776D01*
X54195805Y-97359540D01*
X54217306Y-97502763D01*
X54194091Y-97585411D01*
X54159839Y-97634092D01*
X54069262Y-97663522D01*
X54012937Y-97644271D01*
X53945576Y-97591054D01*
X53878787Y-97462546D01*
X53801532Y-97224782D01*
X53780031Y-97081559D01*
X53803247Y-96998911D01*
X53837499Y-96950230D01*
X54199806Y-96832509D02*
X54544790Y-97509014D01*
X54469822Y-96970089D01*
X54725944Y-97450153D01*
X54607402Y-96700073D01*
X54743267Y-96655928D02*
X55037642Y-96560280D01*
X54967423Y-96883513D01*
X55035356Y-96861440D01*
X55091680Y-96880692D01*
X55125361Y-96907300D01*
X55170078Y-96967876D01*
X55225259Y-97137707D01*
X55224688Y-97212997D01*
X55213080Y-97254321D01*
X55178828Y-97303002D01*
X55042963Y-97347148D01*
X54986638Y-97327897D01*
X54952957Y-97301288D01*
X39423563Y-102347093D02*
X39411955Y-102388417D01*
X39355059Y-102444456D01*
X39309771Y-102459171D01*
X39230802Y-102447278D01*
X39163441Y-102394060D01*
X39118724Y-102333485D01*
X39051934Y-102204977D01*
X39018825Y-102103078D01*
X38997324Y-101959856D01*
X38997896Y-101884566D01*
X39021112Y-101801918D01*
X39078008Y-101745879D01*
X39123296Y-101731164D01*
X39202265Y-101743057D01*
X39235946Y-101769666D01*
X39508248Y-101606085D02*
X39598825Y-101576655D01*
X39655149Y-101595906D01*
X39722510Y-101649124D01*
X39789300Y-101777632D01*
X39866554Y-102015396D01*
X39888055Y-102158619D01*
X39864839Y-102241266D01*
X39830587Y-102289948D01*
X39740011Y-102319378D01*
X39683686Y-102300127D01*
X39616325Y-102246909D01*
X39549535Y-102118401D01*
X39472281Y-101880637D01*
X39450780Y-101737415D01*
X39473996Y-101654767D01*
X39508248Y-101606085D01*
X40374048Y-102113367D02*
X40147606Y-102186942D01*
X39915843Y-101473650D01*
X40527237Y-101274996D02*
X40300795Y-101348571D01*
X40388514Y-101695592D01*
X40400122Y-101654268D01*
X40434374Y-101605587D01*
X40547595Y-101568799D01*
X40603920Y-101588050D01*
X40637600Y-101614659D01*
X40682317Y-101675234D01*
X40737499Y-101845065D01*
X40736927Y-101920356D01*
X40725319Y-101961679D01*
X40691067Y-102010361D01*
X40577846Y-102047149D01*
X40521521Y-102027897D01*
X40487841Y-102001289D01*
X52972833Y-95290703D02*
X52703961Y-95002543D01*
X52701103Y-95378994D02*
X52469340Y-94665702D01*
X52650494Y-94606841D01*
X52706818Y-94626092D01*
X52740499Y-94652701D01*
X52785216Y-94713276D01*
X52818325Y-94815175D01*
X52817753Y-94890465D01*
X52806145Y-94931789D01*
X52771893Y-94980471D01*
X52590740Y-95039331D01*
X53035445Y-94481763D02*
X53126022Y-94452333D01*
X53182347Y-94471584D01*
X53249708Y-94524801D01*
X53316497Y-94653309D01*
X53393751Y-94891073D01*
X53415252Y-95034296D01*
X53392037Y-95116944D01*
X53357785Y-95165625D01*
X53267208Y-95195055D01*
X53210883Y-95175804D01*
X53143522Y-95122587D01*
X53076733Y-94994079D01*
X52999478Y-94756315D01*
X52977977Y-94613092D01*
X53001193Y-94530444D01*
X53035445Y-94481763D01*
X53397752Y-94364042D02*
X53742736Y-95040547D01*
X53667768Y-94501622D01*
X53923890Y-94981686D01*
X53805348Y-94231606D01*
X53985930Y-94248036D02*
X53997538Y-94206712D01*
X54031790Y-94158031D01*
X54145011Y-94121243D01*
X54201336Y-94140494D01*
X54235016Y-94167103D01*
X54279733Y-94227678D01*
X54301806Y-94295611D01*
X54312271Y-94404867D01*
X54172976Y-94900753D01*
X54467351Y-94805105D01*
X38621509Y-99878626D02*
X38609901Y-99919950D01*
X38553005Y-99975989D01*
X38507717Y-99990704D01*
X38428748Y-99978811D01*
X38361387Y-99925593D01*
X38316670Y-99865018D01*
X38249880Y-99736510D01*
X38216771Y-99634611D01*
X38195270Y-99491389D01*
X38195842Y-99416099D01*
X38219058Y-99333451D01*
X38275954Y-99277412D01*
X38321242Y-99262697D01*
X38400211Y-99274590D01*
X38433892Y-99301199D01*
X38706194Y-99137618D02*
X38796771Y-99108188D01*
X38853095Y-99127439D01*
X38920456Y-99180657D01*
X38987246Y-99309165D01*
X39064500Y-99546929D01*
X39086001Y-99690152D01*
X39062785Y-99772799D01*
X39028533Y-99821481D01*
X38937957Y-99850911D01*
X38881632Y-99831660D01*
X38814271Y-99778442D01*
X38747481Y-99649934D01*
X38670227Y-99412170D01*
X38648726Y-99268948D01*
X38671942Y-99186300D01*
X38706194Y-99137618D01*
X39571994Y-99644900D02*
X39345552Y-99718475D01*
X39113789Y-99005183D01*
X39779793Y-99051651D02*
X39934301Y-99527179D01*
X39578281Y-98816708D02*
X39630605Y-99362990D01*
X39924980Y-99267342D01*
X52233011Y-92851960D02*
X51964139Y-92563800D01*
X51961281Y-92940251D02*
X51729518Y-92226959D01*
X51910672Y-92168098D01*
X51966996Y-92187349D01*
X52000677Y-92213958D01*
X52045394Y-92274533D01*
X52078503Y-92376432D01*
X52077931Y-92451722D01*
X52066323Y-92493046D01*
X52032071Y-92541728D01*
X51850918Y-92600588D01*
X52295623Y-92043020D02*
X52386200Y-92013590D01*
X52442525Y-92032841D01*
X52509886Y-92086058D01*
X52576675Y-92214566D01*
X52653929Y-92452330D01*
X52675430Y-92595553D01*
X52652215Y-92678201D01*
X52617963Y-92726882D01*
X52527386Y-92756312D01*
X52471061Y-92737061D01*
X52403700Y-92683844D01*
X52336911Y-92555336D01*
X52259656Y-92317572D01*
X52238155Y-92174349D01*
X52261371Y-92091701D01*
X52295623Y-92043020D01*
X52657930Y-91925299D02*
X53002914Y-92601804D01*
X52927946Y-92062879D01*
X53184068Y-92542943D01*
X53065526Y-91792863D01*
X53727529Y-92366362D02*
X53455798Y-92454653D01*
X53591663Y-92410508D02*
X53359901Y-91697215D01*
X53347721Y-91813829D01*
X53324505Y-91896477D01*
X53290253Y-91945158D01*
%TO.C,Reset1*%
D13*
X65152380Y-108738095D02*
X64676190Y-109071428D01*
X65152380Y-109309523D02*
X64152380Y-109309523D01*
X64152380Y-108928571D01*
X64200000Y-108833333D01*
X64247619Y-108785714D01*
X64342857Y-108738095D01*
X64485714Y-108738095D01*
X64580952Y-108785714D01*
X64628571Y-108833333D01*
X64676190Y-108928571D01*
X64676190Y-109309523D01*
X65104761Y-107928571D02*
X65152380Y-108023809D01*
X65152380Y-108214285D01*
X65104761Y-108309523D01*
X65009523Y-108357142D01*
X64628571Y-108357142D01*
X64533333Y-108309523D01*
X64485714Y-108214285D01*
X64485714Y-108023809D01*
X64533333Y-107928571D01*
X64628571Y-107880952D01*
X64723809Y-107880952D01*
X64819047Y-108357142D01*
X65104761Y-107500000D02*
X65152380Y-107404761D01*
X65152380Y-107214285D01*
X65104761Y-107119047D01*
X65009523Y-107071428D01*
X64961904Y-107071428D01*
X64866666Y-107119047D01*
X64819047Y-107214285D01*
X64819047Y-107357142D01*
X64771428Y-107452380D01*
X64676190Y-107500000D01*
X64628571Y-107500000D01*
X64533333Y-107452380D01*
X64485714Y-107357142D01*
X64485714Y-107214285D01*
X64533333Y-107119047D01*
X65104761Y-106261904D02*
X65152380Y-106357142D01*
X65152380Y-106547619D01*
X65104761Y-106642857D01*
X65009523Y-106690476D01*
X64628571Y-106690476D01*
X64533333Y-106642857D01*
X64485714Y-106547619D01*
X64485714Y-106357142D01*
X64533333Y-106261904D01*
X64628571Y-106214285D01*
X64723809Y-106214285D01*
X64819047Y-106690476D01*
X64485714Y-105928571D02*
X64485714Y-105547619D01*
X64152380Y-105785714D02*
X65009523Y-105785714D01*
X65104761Y-105738095D01*
X65152380Y-105642857D01*
X65152380Y-105547619D01*
%TO.C,J1*%
X43321389Y-113834592D02*
X43864850Y-113658011D01*
X43902136Y-114697358D02*
X43593119Y-113746302D01*
X45034346Y-114329481D02*
X44570177Y-113979603D01*
X44490886Y-114506062D02*
X44181869Y-113555006D01*
X44544176Y-113437285D01*
X44649468Y-113453143D01*
X44709471Y-113483716D01*
X44784190Y-113559578D01*
X44828335Y-113695443D01*
X44812477Y-113800735D01*
X44781904Y-113860739D01*
X44706042Y-113935457D01*
X44343735Y-114053178D01*
X45985403Y-114020464D02*
X45521233Y-113670586D01*
X45441942Y-114197045D02*
X45132925Y-113245989D01*
X45495232Y-113128268D01*
X45600524Y-113144126D01*
X45660528Y-113174699D01*
X45735246Y-113250561D01*
X45779392Y-113386426D01*
X45763533Y-113491718D01*
X45732960Y-113551722D01*
X45657098Y-113626440D01*
X45294791Y-113744161D01*
X46332995Y-113857455D02*
X46483575Y-113858598D01*
X46710017Y-113785022D01*
X46785879Y-113710304D01*
X46816453Y-113650300D01*
X46832311Y-113545008D01*
X46802881Y-113454432D01*
X46728162Y-113378570D01*
X46668158Y-113347997D01*
X46562867Y-113332138D01*
X46366998Y-113345710D01*
X46261706Y-113329852D01*
X46201702Y-113299279D01*
X46126984Y-113223417D01*
X46097554Y-113132840D01*
X46113412Y-113027548D01*
X46143985Y-112967545D01*
X46219847Y-112892826D01*
X46446289Y-112819251D01*
X46596869Y-112820394D01*
%TD*%
M02*
