M48
; DRILL file {KiCad (5.1.8)-1} date 08/08/21 13:01:02
; FORMAT={2:4/ absolute / inch / suppress leading zeros}
; #@! TF.CreationDate,2021-08-08T13:01:02+02:00
; #@! TF.GenerationSoftware,Kicad,Pcbnew,(5.1.8)-1
; #@! TF.FileFunction,Plated,1,2,PTH
FMAT,2
INCH,TZ
T1C0.0157
T2C0.0300
T3C0.0320
T4C0.0394
%
G90
G05
T1
X17224Y-44882
X18307Y-44488
X19783Y-44094
X20472Y-43898
X21590Y-47400
X21949Y-34646
X22810Y-47000
X23210Y-50160
X25000Y-34055
X26900Y-28160
X26900Y-34840
X27560Y-31350
X27970Y-38050
X28209Y-28150
X28230Y-34860
X29340Y-45440
X30580Y-48560
X30680Y-45280
X33990Y-38180
X34000Y-24810
X34000Y-31500
X34660Y-41360
X34670Y-34700
X34700Y-28020
X35310Y-24840
X35310Y-31510
X35330Y-38200
X37340Y-44900
X38010Y-48050
X38700Y-44950
X41070Y-23220
X41080Y-29950
X41080Y-36600
X41740Y-33080
X41780Y-39810
X41820Y-26510
X42370Y-36670
X42390Y-23250
X42390Y-30000
X48140Y-38200
X48170Y-24820
X48190Y-31500
X48850Y-34630
X48900Y-28040
X49260Y-41410
X49460Y-38260
X49480Y-24870
X49520Y-31530
X55250Y-33480
X55270Y-40170
X55930Y-43360
X56260Y-36700
X56570Y-33500
X56570Y-40210
T2
X27559Y-25197
X28308Y-24954
X29057Y-24710
X22441Y-27559
X20866Y-27953
T3
X13147Y-30939
X13456Y-31890
X13489Y-30303
X13765Y-32842
X13798Y-31254
X14074Y-33793
X14107Y-32205
X14383Y-34744
X14416Y-33156
X14692Y-35695
X14725Y-34107
X15001Y-36646
X15034Y-35058
X15310Y-37597
X15343Y-36009
X15619Y-38548
X15652Y-36960
X15928Y-39499
X15961Y-37911
X16237Y-40450
X16270Y-38862
X16546Y-41401
X16579Y-39813
X16855Y-42352
X16888Y-40764
X17197Y-41715
X18853Y-29085
X19162Y-30036
X19196Y-28448
X19471Y-30987
X19497Y-29402
X19780Y-31939
X19806Y-30353
X20089Y-32890
X20115Y-31304
X20398Y-33841
X20424Y-32255
X20707Y-34792
X20733Y-33206
X21017Y-35743
X21042Y-34157
X21326Y-36694
X21351Y-35108
X21635Y-37645
X21660Y-36059
X21944Y-38596
X21969Y-37010
X22253Y-39547
X22278Y-37961
X22562Y-40498
X22587Y-38912
X22896Y-39864
T4
X24803Y-40945
X24803Y-43701
X26772Y-40945
X26772Y-43701
T0
M30
