%TF.GenerationSoftware,KiCad,Pcbnew,(5.1.8)-1*%
%TF.CreationDate,2021-08-08T13:00:59+02:00*%
%TF.ProjectId,miniki v2,6d696e69-6b69-4207-9632-2e6b69636164,rev?*%
%TF.SameCoordinates,Original*%
%TF.FileFunction,Legend,Bot*%
%TF.FilePolarity,Positive*%
%FSLAX46Y46*%
G04 Gerber Fmt 4.6, Leading zero omitted, Abs format (unit mm)*
G04 Created by KiCad (PCBNEW (5.1.8)-1) date 2021-08-08 13:00:59*
%MOMM*%
%LPD*%
G01*
G04 APERTURE LIST*
%ADD10C,0.600000*%
%ADD11C,0.100000*%
%ADD12C,0.120000*%
%ADD13C,0.150000*%
%ADD14C,0.125000*%
G04 APERTURE END LIST*
D10*
X129928571Y-118607142D02*
X129928571Y-115607142D01*
X128928571Y-117750000D01*
X127928571Y-115607142D01*
X127928571Y-118607142D01*
X126500000Y-118607142D02*
X126500000Y-116607142D01*
X126500000Y-115607142D02*
X126642857Y-115750000D01*
X126500000Y-115892857D01*
X126357142Y-115750000D01*
X126500000Y-115607142D01*
X126500000Y-115892857D01*
X125071428Y-116607142D02*
X125071428Y-118607142D01*
X125071428Y-116892857D02*
X124928571Y-116750000D01*
X124642857Y-116607142D01*
X124214285Y-116607142D01*
X123928571Y-116750000D01*
X123785714Y-117035714D01*
X123785714Y-118607142D01*
X122357142Y-118607142D02*
X122357142Y-116607142D01*
X122357142Y-115607142D02*
X122500000Y-115750000D01*
X122357142Y-115892857D01*
X122214285Y-115750000D01*
X122357142Y-115607142D01*
X122357142Y-115892857D01*
X120928571Y-118607142D02*
X120928571Y-115607142D01*
X120642857Y-117464285D02*
X119785714Y-118607142D01*
X119785714Y-116607142D02*
X120928571Y-117750000D01*
X118500000Y-118607142D02*
X118500000Y-116607142D01*
X118500000Y-115607142D02*
X118642857Y-115750000D01*
X118500000Y-115892857D01*
X118357142Y-115750000D01*
X118500000Y-115607142D01*
X118500000Y-115892857D01*
X114928571Y-115892857D02*
X114785714Y-115750000D01*
X114500000Y-115607142D01*
X113785714Y-115607142D01*
X113500000Y-115750000D01*
X113357142Y-115892857D01*
X113214285Y-116178571D01*
X113214285Y-116464285D01*
X113357142Y-116892857D01*
X115071428Y-118607142D01*
X113214285Y-118607142D01*
X111928571Y-118321428D02*
X111785714Y-118464285D01*
X111928571Y-118607142D01*
X112071428Y-118464285D01*
X111928571Y-118321428D01*
X111928571Y-118607142D01*
X109928571Y-115607142D02*
X109642857Y-115607142D01*
X109357142Y-115750000D01*
X109214285Y-115892857D01*
X109071428Y-116178571D01*
X108928571Y-116750000D01*
X108928571Y-117464285D01*
X109071428Y-118035714D01*
X109214285Y-118321428D01*
X109357142Y-118464285D01*
X109642857Y-118607142D01*
X109928571Y-118607142D01*
X110214285Y-118464285D01*
X110357142Y-118321428D01*
X110500000Y-118035714D01*
X110642857Y-117464285D01*
X110642857Y-116750000D01*
X110500000Y-116178571D01*
X110357142Y-115892857D01*
X110214285Y-115750000D01*
X109928571Y-115607142D01*
D11*
%TO.C,D18*%
X141650000Y-102000000D02*
X141650000Y-101450000D01*
D12*
X139750000Y-101000000D02*
X144250000Y-101000000D01*
D11*
X141250000Y-102000000D02*
X141650000Y-102000000D01*
X142250000Y-102400000D02*
X141650000Y-102000000D01*
D12*
X139750000Y-103000000D02*
X144250000Y-103000000D01*
X139750000Y-101000000D02*
X139750000Y-103000000D01*
D11*
X141650000Y-102000000D02*
X141650000Y-102550000D01*
X142250000Y-102000000D02*
X142750000Y-102000000D01*
X141650000Y-102000000D02*
X142250000Y-101600000D01*
X142250000Y-101600000D02*
X142250000Y-102400000D01*
D12*
X144250000Y-101000000D02*
X144250000Y-103000000D01*
D11*
%TO.C,D17*%
X141650000Y-85000000D02*
X141650000Y-84450000D01*
D12*
X139750000Y-84000000D02*
X144250000Y-84000000D01*
D11*
X141250000Y-85000000D02*
X141650000Y-85000000D01*
X142250000Y-85400000D02*
X141650000Y-85000000D01*
D12*
X139750000Y-86000000D02*
X144250000Y-86000000D01*
X139750000Y-84000000D02*
X139750000Y-86000000D01*
D11*
X141650000Y-85000000D02*
X141650000Y-85550000D01*
X142250000Y-85000000D02*
X142750000Y-85000000D01*
X141650000Y-85000000D02*
X142250000Y-84600000D01*
X142250000Y-84600000D02*
X142250000Y-85400000D01*
D12*
X144250000Y-84000000D02*
X144250000Y-86000000D01*
D11*
%TO.C,D15*%
X123650000Y-97000000D02*
X123650000Y-96450000D01*
D12*
X121750000Y-96000000D02*
X126250000Y-96000000D01*
D11*
X123250000Y-97000000D02*
X123650000Y-97000000D01*
X124250000Y-97400000D02*
X123650000Y-97000000D01*
D12*
X121750000Y-98000000D02*
X126250000Y-98000000D01*
X121750000Y-96000000D02*
X121750000Y-98000000D01*
D11*
X123650000Y-97000000D02*
X123650000Y-97550000D01*
X124250000Y-97000000D02*
X124750000Y-97000000D01*
X123650000Y-97000000D02*
X124250000Y-96600000D01*
X124250000Y-96600000D02*
X124250000Y-97400000D01*
D12*
X126250000Y-96000000D02*
X126250000Y-98000000D01*
D11*
%TO.C,D14*%
X123650000Y-80000000D02*
X123650000Y-79450000D01*
D12*
X121750000Y-79000000D02*
X126250000Y-79000000D01*
D11*
X123250000Y-80000000D02*
X123650000Y-80000000D01*
X124250000Y-80400000D02*
X123650000Y-80000000D01*
D12*
X121750000Y-81000000D02*
X126250000Y-81000000D01*
X121750000Y-79000000D02*
X121750000Y-81000000D01*
D11*
X123650000Y-80000000D02*
X123650000Y-80550000D01*
X124250000Y-80000000D02*
X124750000Y-80000000D01*
X123650000Y-80000000D02*
X124250000Y-79600000D01*
X124250000Y-79600000D02*
X124250000Y-80400000D01*
D12*
X126250000Y-79000000D02*
X126250000Y-81000000D01*
D11*
%TO.C,D13*%
X123650000Y-63000000D02*
X123650000Y-62450000D01*
D12*
X121750000Y-62000000D02*
X126250000Y-62000000D01*
D11*
X123250000Y-63000000D02*
X123650000Y-63000000D01*
X124250000Y-63400000D02*
X123650000Y-63000000D01*
D12*
X121750000Y-64000000D02*
X126250000Y-64000000D01*
X121750000Y-62000000D02*
X121750000Y-64000000D01*
D11*
X123650000Y-63000000D02*
X123650000Y-63550000D01*
X124250000Y-63000000D02*
X124750000Y-63000000D01*
X123650000Y-63000000D02*
X124250000Y-62600000D01*
X124250000Y-62600000D02*
X124250000Y-63400000D01*
D12*
X126250000Y-62000000D02*
X126250000Y-64000000D01*
D11*
%TO.C,D12*%
X96150000Y-114000000D02*
X96150000Y-113450000D01*
D12*
X94250000Y-113000000D02*
X98750000Y-113000000D01*
D11*
X95750000Y-114000000D02*
X96150000Y-114000000D01*
X96750000Y-114400000D02*
X96150000Y-114000000D01*
D12*
X94250000Y-115000000D02*
X98750000Y-115000000D01*
X94250000Y-113000000D02*
X94250000Y-115000000D01*
D11*
X96150000Y-114000000D02*
X96150000Y-114550000D01*
X96750000Y-114000000D02*
X97250000Y-114000000D01*
X96150000Y-114000000D02*
X96750000Y-113600000D01*
X96750000Y-113600000D02*
X96750000Y-114400000D01*
D12*
X98750000Y-113000000D02*
X98750000Y-115000000D01*
D11*
%TO.C,D11*%
X105650000Y-93000000D02*
X105650000Y-92450000D01*
D12*
X103750000Y-92000000D02*
X108250000Y-92000000D01*
D11*
X105250000Y-93000000D02*
X105650000Y-93000000D01*
X106250000Y-93400000D02*
X105650000Y-93000000D01*
D12*
X103750000Y-94000000D02*
X108250000Y-94000000D01*
X103750000Y-92000000D02*
X103750000Y-94000000D01*
D11*
X105650000Y-93000000D02*
X105650000Y-93550000D01*
X106250000Y-93000000D02*
X106750000Y-93000000D01*
X105650000Y-93000000D02*
X106250000Y-92600000D01*
X106250000Y-92600000D02*
X106250000Y-93400000D01*
D12*
X108250000Y-92000000D02*
X108250000Y-94000000D01*
D11*
%TO.C,D10*%
X105650000Y-76000000D02*
X105650000Y-75450000D01*
D12*
X103750000Y-75000000D02*
X108250000Y-75000000D01*
D11*
X105250000Y-76000000D02*
X105650000Y-76000000D01*
X106250000Y-76400000D02*
X105650000Y-76000000D01*
D12*
X103750000Y-77000000D02*
X108250000Y-77000000D01*
X103750000Y-75000000D02*
X103750000Y-77000000D01*
D11*
X105650000Y-76000000D02*
X105650000Y-76550000D01*
X106250000Y-76000000D02*
X106750000Y-76000000D01*
X105650000Y-76000000D02*
X106250000Y-75600000D01*
X106250000Y-75600000D02*
X106250000Y-76400000D01*
D12*
X108250000Y-75000000D02*
X108250000Y-77000000D01*
D13*
%TO.C,U1*%
X46292895Y-73078489D02*
X48708579Y-72293586D01*
X48708579Y-72293586D02*
X58906140Y-103678451D01*
X58906140Y-103678451D02*
X56490456Y-104463354D01*
X56491074Y-104465257D02*
X46292895Y-73078489D01*
X31798794Y-77787908D02*
X34214477Y-77003005D01*
X34214477Y-77003005D02*
X44412038Y-108387870D01*
X44412038Y-108387870D02*
X41996355Y-109172773D01*
X41996355Y-109172773D02*
X31798794Y-77787908D01*
D12*
%TO.C,Reset1*%
X69200000Y-112200000D02*
X69200000Y-102800000D01*
X69200000Y-102800000D02*
X61800000Y-102800000D01*
X61800000Y-102800000D02*
X61800000Y-112200000D01*
X61800000Y-112200000D02*
X69200000Y-112200000D01*
%TO.C,Power1*%
X67919373Y-67304692D02*
X66374288Y-62549410D01*
X77429938Y-64214522D02*
X67919373Y-67304692D01*
X75884853Y-59459240D02*
X77429938Y-64214522D01*
X66374288Y-62549410D02*
X75884853Y-59459240D01*
D13*
%TO.C,K18*%
X141000000Y-110700000D02*
G75*
G02*
X139500000Y-109200000I0J1500000D01*
G01*
X139500000Y-113200000D02*
G75*
G02*
X140000000Y-113700000I0J-500000D01*
G01*
X139500000Y-109200000D02*
X139500000Y-108500000D01*
X139500000Y-108500000D02*
X135000000Y-108500000D01*
X140500000Y-115200000D02*
X140000000Y-114700000D01*
X140000000Y-113700000D02*
X140000000Y-114700000D01*
X135000000Y-113200000D02*
X139500000Y-113200000D01*
X144000000Y-111200000D02*
X143500000Y-110700000D01*
X135000000Y-112600000D02*
X135000000Y-113200000D01*
X143500000Y-110700000D02*
X141000000Y-110700000D01*
X144000000Y-114700000D02*
X143500000Y-115200000D01*
X143500000Y-115200000D02*
X140500000Y-115200000D01*
X135000000Y-108500000D02*
X135000000Y-109000000D01*
%TO.C,K17*%
X141000000Y-93700000D02*
G75*
G02*
X139500000Y-92200000I0J1500000D01*
G01*
X139500000Y-96200000D02*
G75*
G02*
X140000000Y-96700000I0J-500000D01*
G01*
X139500000Y-92200000D02*
X139500000Y-91500000D01*
X139500000Y-91500000D02*
X135000000Y-91500000D01*
X140500000Y-98200000D02*
X140000000Y-97700000D01*
X140000000Y-96700000D02*
X140000000Y-97700000D01*
X135000000Y-96200000D02*
X139500000Y-96200000D01*
X144000000Y-94200000D02*
X143500000Y-93700000D01*
X135000000Y-95600000D02*
X135000000Y-96200000D01*
X143500000Y-93700000D02*
X141000000Y-93700000D01*
X144000000Y-97700000D02*
X143500000Y-98200000D01*
X143500000Y-98200000D02*
X140500000Y-98200000D01*
X135000000Y-91500000D02*
X135000000Y-92000000D01*
%TO.C,K15*%
X123000000Y-105700000D02*
G75*
G02*
X121500000Y-104200000I0J1500000D01*
G01*
X121500000Y-108200000D02*
G75*
G02*
X122000000Y-108700000I0J-500000D01*
G01*
X121500000Y-104200000D02*
X121500000Y-103500000D01*
X121500000Y-103500000D02*
X117000000Y-103500000D01*
X122500000Y-110200000D02*
X122000000Y-109700000D01*
X122000000Y-108700000D02*
X122000000Y-109700000D01*
X117000000Y-108200000D02*
X121500000Y-108200000D01*
X126000000Y-106200000D02*
X125500000Y-105700000D01*
X117000000Y-107600000D02*
X117000000Y-108200000D01*
X125500000Y-105700000D02*
X123000000Y-105700000D01*
X126000000Y-109700000D02*
X125500000Y-110200000D01*
X125500000Y-110200000D02*
X122500000Y-110200000D01*
X117000000Y-103500000D02*
X117000000Y-104000000D01*
%TO.C,K14*%
X123000000Y-88700000D02*
G75*
G02*
X121500000Y-87200000I0J1500000D01*
G01*
X121500000Y-91200000D02*
G75*
G02*
X122000000Y-91700000I0J-500000D01*
G01*
X121500000Y-87200000D02*
X121500000Y-86500000D01*
X121500000Y-86500000D02*
X117000000Y-86500000D01*
X122500000Y-93200000D02*
X122000000Y-92700000D01*
X122000000Y-91700000D02*
X122000000Y-92700000D01*
X117000000Y-91200000D02*
X121500000Y-91200000D01*
X126000000Y-89200000D02*
X125500000Y-88700000D01*
X117000000Y-90600000D02*
X117000000Y-91200000D01*
X125500000Y-88700000D02*
X123000000Y-88700000D01*
X126000000Y-92700000D02*
X125500000Y-93200000D01*
X125500000Y-93200000D02*
X122500000Y-93200000D01*
X117000000Y-86500000D02*
X117000000Y-87000000D01*
%TO.C,K13*%
X123000000Y-71700000D02*
G75*
G02*
X121500000Y-70200000I0J1500000D01*
G01*
X121500000Y-74200000D02*
G75*
G02*
X122000000Y-74700000I0J-500000D01*
G01*
X121500000Y-70200000D02*
X121500000Y-69500000D01*
X121500000Y-69500000D02*
X117000000Y-69500000D01*
X122500000Y-76200000D02*
X122000000Y-75700000D01*
X122000000Y-74700000D02*
X122000000Y-75700000D01*
X117000000Y-74200000D02*
X121500000Y-74200000D01*
X126000000Y-72200000D02*
X125500000Y-71700000D01*
X117000000Y-73600000D02*
X117000000Y-74200000D01*
X125500000Y-71700000D02*
X123000000Y-71700000D01*
X126000000Y-75700000D02*
X125500000Y-76200000D01*
X125500000Y-76200000D02*
X122500000Y-76200000D01*
X117000000Y-69500000D02*
X117000000Y-70000000D01*
%TO.C,K12*%
X95500000Y-122700000D02*
G75*
G02*
X94000000Y-121200000I0J1500000D01*
G01*
X94000000Y-125200000D02*
G75*
G02*
X94500000Y-125700000I0J-500000D01*
G01*
X94000000Y-121200000D02*
X94000000Y-120500000D01*
X94000000Y-120500000D02*
X89500000Y-120500000D01*
X95000000Y-127200000D02*
X94500000Y-126700000D01*
X94500000Y-125700000D02*
X94500000Y-126700000D01*
X89500000Y-125200000D02*
X94000000Y-125200000D01*
X98500000Y-123200000D02*
X98000000Y-122700000D01*
X89500000Y-124600000D02*
X89500000Y-125200000D01*
X98000000Y-122700000D02*
X95500000Y-122700000D01*
X98500000Y-126700000D02*
X98000000Y-127200000D01*
X98000000Y-127200000D02*
X95000000Y-127200000D01*
X89500000Y-120500000D02*
X89500000Y-121000000D01*
%TO.C,K11*%
X105000000Y-101700000D02*
G75*
G02*
X103500000Y-100200000I0J1500000D01*
G01*
X103500000Y-104200000D02*
G75*
G02*
X104000000Y-104700000I0J-500000D01*
G01*
X103500000Y-100200000D02*
X103500000Y-99500000D01*
X103500000Y-99500000D02*
X99000000Y-99500000D01*
X104500000Y-106200000D02*
X104000000Y-105700000D01*
X104000000Y-104700000D02*
X104000000Y-105700000D01*
X99000000Y-104200000D02*
X103500000Y-104200000D01*
X108000000Y-102200000D02*
X107500000Y-101700000D01*
X99000000Y-103600000D02*
X99000000Y-104200000D01*
X107500000Y-101700000D02*
X105000000Y-101700000D01*
X108000000Y-105700000D02*
X107500000Y-106200000D01*
X107500000Y-106200000D02*
X104500000Y-106200000D01*
X99000000Y-99500000D02*
X99000000Y-100000000D01*
%TO.C,K10*%
X105000000Y-84700000D02*
G75*
G02*
X103500000Y-83200000I0J1500000D01*
G01*
X103500000Y-87200000D02*
G75*
G02*
X104000000Y-87700000I0J-500000D01*
G01*
X103500000Y-83200000D02*
X103500000Y-82500000D01*
X103500000Y-82500000D02*
X99000000Y-82500000D01*
X104500000Y-89200000D02*
X104000000Y-88700000D01*
X104000000Y-87700000D02*
X104000000Y-88700000D01*
X99000000Y-87200000D02*
X103500000Y-87200000D01*
X108000000Y-85200000D02*
X107500000Y-84700000D01*
X99000000Y-86600000D02*
X99000000Y-87200000D01*
X107500000Y-84700000D02*
X105000000Y-84700000D01*
X108000000Y-88700000D02*
X107500000Y-89200000D01*
X107500000Y-89200000D02*
X104500000Y-89200000D01*
X99000000Y-82500000D02*
X99000000Y-83000000D01*
%TO.C,K9*%
X105000000Y-67700000D02*
G75*
G02*
X103500000Y-66200000I0J1500000D01*
G01*
X103500000Y-70200000D02*
G75*
G02*
X104000000Y-70700000I0J-500000D01*
G01*
X103500000Y-66200000D02*
X103500000Y-65500000D01*
X103500000Y-65500000D02*
X99000000Y-65500000D01*
X104500000Y-72200000D02*
X104000000Y-71700000D01*
X104000000Y-70700000D02*
X104000000Y-71700000D01*
X99000000Y-70200000D02*
X103500000Y-70200000D01*
X108000000Y-68200000D02*
X107500000Y-67700000D01*
X99000000Y-69600000D02*
X99000000Y-70200000D01*
X107500000Y-67700000D02*
X105000000Y-67700000D01*
X108000000Y-71700000D02*
X107500000Y-72200000D01*
X107500000Y-72200000D02*
X104500000Y-72200000D01*
X99000000Y-65500000D02*
X99000000Y-66000000D01*
%TO.C,K8*%
X76591119Y-124010881D02*
G75*
G02*
X74874935Y-122764001I-234652J1481532D01*
G01*
X75500673Y-126714754D02*
G75*
G02*
X76072734Y-127130381I78217J-493844D01*
G01*
X74874935Y-122764001D02*
X74765431Y-122072619D01*
X74765431Y-122072619D02*
X70320833Y-122776574D01*
X76801230Y-128533696D02*
X76229169Y-128118069D01*
X76072734Y-127130381D02*
X76229169Y-128118069D01*
X71056075Y-127418709D02*
X75500673Y-126714754D01*
X79632401Y-124035422D02*
X79060340Y-123619795D01*
X70962215Y-126826096D02*
X71056075Y-127418709D01*
X79060340Y-123619795D02*
X76591119Y-124010881D01*
X80179922Y-127492331D02*
X79764295Y-128064393D01*
X79764295Y-128064393D02*
X76801230Y-128533696D01*
X70320833Y-122776574D02*
X70399051Y-123270418D01*
%TO.C,K7*%
X87000000Y-105700000D02*
G75*
G02*
X85500000Y-104200000I0J1500000D01*
G01*
X85500000Y-108200000D02*
G75*
G02*
X86000000Y-108700000I0J-500000D01*
G01*
X85500000Y-104200000D02*
X85500000Y-103500000D01*
X85500000Y-103500000D02*
X81000000Y-103500000D01*
X86500000Y-110200000D02*
X86000000Y-109700000D01*
X86000000Y-108700000D02*
X86000000Y-109700000D01*
X81000000Y-108200000D02*
X85500000Y-108200000D01*
X90000000Y-106200000D02*
X89500000Y-105700000D01*
X81000000Y-107600000D02*
X81000000Y-108200000D01*
X89500000Y-105700000D02*
X87000000Y-105700000D01*
X90000000Y-109700000D02*
X89500000Y-110200000D01*
X89500000Y-110200000D02*
X86500000Y-110200000D01*
X81000000Y-103500000D02*
X81000000Y-104000000D01*
%TO.C,K6*%
X87000000Y-88700000D02*
G75*
G02*
X85500000Y-87200000I0J1500000D01*
G01*
X85500000Y-91200000D02*
G75*
G02*
X86000000Y-91700000I0J-500000D01*
G01*
X85500000Y-87200000D02*
X85500000Y-86500000D01*
X85500000Y-86500000D02*
X81000000Y-86500000D01*
X86500000Y-93200000D02*
X86000000Y-92700000D01*
X86000000Y-91700000D02*
X86000000Y-92700000D01*
X81000000Y-91200000D02*
X85500000Y-91200000D01*
X90000000Y-89200000D02*
X89500000Y-88700000D01*
X81000000Y-90600000D02*
X81000000Y-91200000D01*
X89500000Y-88700000D02*
X87000000Y-88700000D01*
X90000000Y-92700000D02*
X89500000Y-93200000D01*
X89500000Y-93200000D02*
X86500000Y-93200000D01*
X81000000Y-86500000D02*
X81000000Y-87000000D01*
%TO.C,K5*%
X87000000Y-71700000D02*
G75*
G02*
X85500000Y-70200000I0J1500000D01*
G01*
X85500000Y-74200000D02*
G75*
G02*
X86000000Y-74700000I0J-500000D01*
G01*
X85500000Y-70200000D02*
X85500000Y-69500000D01*
X85500000Y-69500000D02*
X81000000Y-69500000D01*
X86500000Y-76200000D02*
X86000000Y-75700000D01*
X86000000Y-74700000D02*
X86000000Y-75700000D01*
X81000000Y-74200000D02*
X85500000Y-74200000D01*
X90000000Y-72200000D02*
X89500000Y-71700000D01*
X81000000Y-73600000D02*
X81000000Y-74200000D01*
X89500000Y-71700000D02*
X87000000Y-71700000D01*
X90000000Y-75700000D02*
X89500000Y-76200000D01*
X89500000Y-76200000D02*
X86500000Y-76200000D01*
X81000000Y-69500000D02*
X81000000Y-70000000D01*
%TO.C,K4*%
X58092307Y-128227926D02*
G75*
G02*
X56202196Y-127264867I-463526J1426585D01*
G01*
X57438265Y-131069093D02*
G75*
G02*
X58068301Y-131390113I154508J-475528D01*
G01*
X56202196Y-127264867D02*
X55985884Y-126599127D01*
X55985884Y-126599127D02*
X51706130Y-127989704D01*
X59007355Y-132662189D02*
X58377318Y-132341169D01*
X58068301Y-131390113D02*
X58377318Y-132341169D01*
X53158510Y-132459669D02*
X57438264Y-131069093D01*
X61099984Y-127776403D02*
X60469948Y-127455384D01*
X52973100Y-131889035D02*
X53158510Y-132459669D01*
X60469948Y-127455384D02*
X58092306Y-128227926D01*
X62181544Y-131105101D02*
X61860524Y-131735138D01*
X61860524Y-131735138D02*
X59007355Y-132662189D01*
X51706130Y-127989704D02*
X51860638Y-128465232D01*
%TO.C,K2*%
X69000000Y-97200000D02*
G75*
G02*
X67500000Y-95700000I0J1500000D01*
G01*
X67500000Y-99700000D02*
G75*
G02*
X68000000Y-100200000I0J-500000D01*
G01*
X67500000Y-95700000D02*
X67500000Y-95000000D01*
X67500000Y-95000000D02*
X63000000Y-95000000D01*
X68500000Y-101700000D02*
X68000000Y-101200000D01*
X68000000Y-100200000D02*
X68000000Y-101200000D01*
X63000000Y-99700000D02*
X67500000Y-99700000D01*
X72000000Y-97700000D02*
X71500000Y-97200000D01*
X63000000Y-99100000D02*
X63000000Y-99700000D01*
X71500000Y-97200000D02*
X69000000Y-97200000D01*
X72000000Y-101200000D02*
X71500000Y-101700000D01*
X71500000Y-101700000D02*
X68500000Y-101700000D01*
X63000000Y-95000000D02*
X63000000Y-95500000D01*
%TO.C,K1*%
X69000000Y-80200000D02*
G75*
G02*
X67500000Y-78700000I0J1500000D01*
G01*
X67500000Y-82700000D02*
G75*
G02*
X68000000Y-83200000I0J-500000D01*
G01*
X67500000Y-78700000D02*
X67500000Y-78000000D01*
X67500000Y-78000000D02*
X63000000Y-78000000D01*
X68500000Y-84700000D02*
X68000000Y-84200000D01*
X68000000Y-83200000D02*
X68000000Y-84200000D01*
X63000000Y-82700000D02*
X67500000Y-82700000D01*
X72000000Y-80700000D02*
X71500000Y-80200000D01*
X63000000Y-82100000D02*
X63000000Y-82700000D01*
X71500000Y-80200000D02*
X69000000Y-80200000D01*
X72000000Y-84200000D02*
X71500000Y-84700000D01*
X71500000Y-84700000D02*
X68500000Y-84700000D01*
X63000000Y-78000000D02*
X63000000Y-78500000D01*
D12*
%TO.C,J1*%
X49815695Y-115414592D02*
X50279220Y-116841177D01*
X44679990Y-117083284D02*
X45963916Y-116666111D01*
X47533159Y-116156233D02*
X49815695Y-115414592D01*
X49578389Y-109182924D02*
X39625583Y-112416787D01*
X41479685Y-118123126D02*
X43110747Y-117593162D01*
X39780091Y-112892315D02*
X39625583Y-112416787D01*
X41479685Y-118123126D02*
X41325176Y-117647598D01*
X51038261Y-108708583D02*
X52892363Y-114414922D01*
X51289833Y-114935616D02*
X52892363Y-114414922D01*
X51289833Y-114935616D02*
X51753358Y-116362201D01*
D11*
%TO.C,D9*%
X105650000Y-59000000D02*
X105650000Y-58450000D01*
D12*
X103750000Y-58000000D02*
X108250000Y-58000000D01*
D11*
X105250000Y-59000000D02*
X105650000Y-59000000D01*
X106250000Y-59400000D02*
X105650000Y-59000000D01*
D12*
X103750000Y-60000000D02*
X108250000Y-60000000D01*
X103750000Y-58000000D02*
X103750000Y-60000000D01*
D11*
X105650000Y-59000000D02*
X105650000Y-59550000D01*
X106250000Y-59000000D02*
X106750000Y-59000000D01*
X105650000Y-59000000D02*
X106250000Y-58600000D01*
X106250000Y-58600000D02*
X106250000Y-59400000D01*
D12*
X108250000Y-58000000D02*
X108250000Y-60000000D01*
D11*
%TO.C,D8*%
X75854309Y-115254752D02*
X75768270Y-114711523D01*
D12*
X73821267Y-114564289D02*
X78265864Y-113860334D01*
D11*
X75459234Y-115317326D02*
X75854309Y-115254752D01*
X76509496Y-115555967D02*
X75854309Y-115254752D01*
D12*
X74134136Y-116539666D02*
X78578733Y-115835711D01*
X73821267Y-114564289D02*
X74134136Y-116539666D01*
D11*
X75854309Y-115254752D02*
X75940348Y-115797981D01*
X76446922Y-115160891D02*
X76940766Y-115082674D01*
X75854309Y-115254752D02*
X76384348Y-114765816D01*
X76384348Y-114765816D02*
X76509496Y-115555967D01*
D12*
X78265864Y-113860334D02*
X78578733Y-115835711D01*
D11*
%TO.C,D7*%
X87650000Y-97000000D02*
X87650000Y-96450000D01*
D12*
X85750000Y-96000000D02*
X90250000Y-96000000D01*
D11*
X87250000Y-97000000D02*
X87650000Y-97000000D01*
X88250000Y-97400000D02*
X87650000Y-97000000D01*
D12*
X85750000Y-98000000D02*
X90250000Y-98000000D01*
X85750000Y-96000000D02*
X85750000Y-98000000D01*
D11*
X87650000Y-97000000D02*
X87650000Y-97550000D01*
X88250000Y-97000000D02*
X88750000Y-97000000D01*
X87650000Y-97000000D02*
X88250000Y-96600000D01*
X88250000Y-96600000D02*
X88250000Y-97400000D01*
D12*
X90250000Y-96000000D02*
X90250000Y-98000000D01*
D11*
%TO.C,D6*%
X87650000Y-80000000D02*
X87650000Y-79450000D01*
D12*
X85750000Y-79000000D02*
X90250000Y-79000000D01*
D11*
X87250000Y-80000000D02*
X87650000Y-80000000D01*
X88250000Y-80400000D02*
X87650000Y-80000000D01*
D12*
X85750000Y-81000000D02*
X90250000Y-81000000D01*
X85750000Y-79000000D02*
X85750000Y-81000000D01*
D11*
X87650000Y-80000000D02*
X87650000Y-80550000D01*
X88250000Y-80000000D02*
X88750000Y-80000000D01*
X87650000Y-80000000D02*
X88250000Y-79600000D01*
X88250000Y-79600000D02*
X88250000Y-80400000D01*
D12*
X90250000Y-79000000D02*
X90250000Y-81000000D01*
D11*
%TO.C,D5*%
X87650000Y-63000000D02*
X87650000Y-62450000D01*
D12*
X85750000Y-62000000D02*
X90250000Y-62000000D01*
D11*
X87250000Y-63000000D02*
X87650000Y-63000000D01*
X88250000Y-63400000D02*
X87650000Y-63000000D01*
D12*
X85750000Y-64000000D02*
X90250000Y-64000000D01*
X85750000Y-62000000D02*
X85750000Y-64000000D01*
D11*
X87650000Y-63000000D02*
X87650000Y-63550000D01*
X88250000Y-63000000D02*
X88750000Y-63000000D01*
X87650000Y-63000000D02*
X88250000Y-62600000D01*
X88250000Y-62600000D02*
X88250000Y-63400000D01*
D12*
X90250000Y-62000000D02*
X90250000Y-64000000D01*
D11*
%TO.C,D4*%
X56067130Y-119908156D02*
X55897171Y-119385075D01*
D12*
X53951106Y-119544232D02*
X58230860Y-118153655D01*
D11*
X55686708Y-120031763D02*
X56067130Y-119908156D01*
X56761371Y-120103168D02*
X56067130Y-119908156D01*
D12*
X54569140Y-121446345D02*
X58848894Y-120055768D01*
X53951106Y-119544232D02*
X54569140Y-121446345D01*
D11*
X56067130Y-119908156D02*
X56237090Y-120431237D01*
X56637764Y-119722746D02*
X57113292Y-119568237D01*
X56067130Y-119908156D02*
X56514157Y-119342323D01*
X56514157Y-119342323D02*
X56761371Y-120103168D01*
D12*
X58230860Y-118153655D02*
X58848894Y-120055768D01*
D11*
%TO.C,D2*%
X69650000Y-88500000D02*
X69650000Y-87950000D01*
D12*
X67750000Y-87500000D02*
X72250000Y-87500000D01*
D11*
X69250000Y-88500000D02*
X69650000Y-88500000D01*
X70250000Y-88900000D02*
X69650000Y-88500000D01*
D12*
X67750000Y-89500000D02*
X72250000Y-89500000D01*
X67750000Y-87500000D02*
X67750000Y-89500000D01*
D11*
X69650000Y-88500000D02*
X69650000Y-89050000D01*
X70250000Y-88500000D02*
X70750000Y-88500000D01*
X69650000Y-88500000D02*
X70250000Y-88100000D01*
X70250000Y-88100000D02*
X70250000Y-88900000D01*
D12*
X72250000Y-87500000D02*
X72250000Y-89500000D01*
D11*
%TO.C,D1*%
X69650000Y-71500000D02*
X69650000Y-70950000D01*
D12*
X67750000Y-70500000D02*
X72250000Y-70500000D01*
D11*
X69250000Y-71500000D02*
X69650000Y-71500000D01*
X70250000Y-71900000D02*
X69650000Y-71500000D01*
D12*
X67750000Y-72500000D02*
X72250000Y-72500000D01*
X67750000Y-70500000D02*
X67750000Y-72500000D01*
D11*
X69650000Y-71500000D02*
X69650000Y-72050000D01*
X70250000Y-71500000D02*
X70750000Y-71500000D01*
X69650000Y-71500000D02*
X70250000Y-71100000D01*
X70250000Y-71100000D02*
X70250000Y-71900000D01*
D12*
X72250000Y-70500000D02*
X72250000Y-72500000D01*
%TO.C,U1*%
D13*
X53169537Y-104440854D02*
X52860520Y-103489797D01*
X52626076Y-104617435D01*
X52317059Y-103666378D01*
X52173192Y-104764586D02*
X51967181Y-104130548D01*
X51864175Y-103813529D02*
X51924179Y-103844102D01*
X51893605Y-103904106D01*
X51833602Y-103873533D01*
X51864175Y-103813529D01*
X51893605Y-103904106D01*
X51297997Y-104998884D02*
X51403289Y-105014742D01*
X51584443Y-104955882D01*
X51660305Y-104881163D01*
X51690878Y-104821160D01*
X51706736Y-104715868D01*
X51618446Y-104444137D01*
X51543727Y-104368276D01*
X51483723Y-104337702D01*
X51378432Y-104321844D01*
X51197278Y-104380705D01*
X51121416Y-104455423D01*
X50528094Y-105249041D02*
X50633386Y-105264899D01*
X50814540Y-105206038D01*
X50890402Y-105131320D01*
X50906260Y-105026028D01*
X50788539Y-104663721D01*
X50713821Y-104587859D01*
X50608529Y-104572001D01*
X50427375Y-104630861D01*
X50351513Y-104705580D01*
X50335655Y-104810872D01*
X50365085Y-104901448D01*
X50847400Y-104844874D01*
X50060495Y-105350903D02*
X50029922Y-105410907D01*
X50089926Y-105441480D01*
X50120499Y-105381476D01*
X50060495Y-105350903D01*
X50089926Y-105441480D01*
X49972205Y-105079173D02*
X49840912Y-104520997D01*
X49780909Y-104490423D01*
X49750335Y-104550427D01*
X49972205Y-105079173D01*
X49780909Y-104490423D01*
X49431030Y-104954593D02*
X49637041Y-105588631D01*
X49460460Y-105045170D02*
X49400457Y-105014597D01*
X49295165Y-104998739D01*
X49159300Y-105042884D01*
X49083438Y-105117602D01*
X49067580Y-105222894D01*
X49229446Y-105721067D01*
X48368966Y-106000654D02*
X48207100Y-105502481D01*
X48222958Y-105397189D01*
X48298820Y-105322471D01*
X48479974Y-105263610D01*
X48585266Y-105279468D01*
X48354251Y-105955365D02*
X48459543Y-105971223D01*
X48685985Y-105897648D01*
X48761847Y-105822929D01*
X48777705Y-105717637D01*
X48748275Y-105627061D01*
X48673556Y-105551199D01*
X48568264Y-105535341D01*
X48341822Y-105608916D01*
X48236530Y-105593058D01*
X47710071Y-105513767D02*
X47916082Y-106147805D01*
X47739501Y-105604344D02*
X47679497Y-105573770D01*
X47574206Y-105557912D01*
X47438340Y-105602057D01*
X47362479Y-105676776D01*
X47346620Y-105782068D01*
X47508486Y-106280240D01*
X46919737Y-106471537D02*
X46995599Y-106396818D01*
X47026172Y-106336815D01*
X47042030Y-106231523D01*
X46953740Y-105959792D01*
X46879021Y-105883930D01*
X46819018Y-105853357D01*
X46713726Y-105837499D01*
X46577861Y-105881644D01*
X46501999Y-105956363D01*
X46471426Y-106016366D01*
X46455567Y-106121658D01*
X46543858Y-106393389D01*
X46618577Y-106469250D01*
X46678580Y-106499824D01*
X46783872Y-106515682D01*
X46919737Y-106471537D01*
D14*
X46313432Y-74440745D02*
X46256536Y-74496784D01*
X46244928Y-74538108D01*
X46244356Y-74613398D01*
X46277465Y-74715297D01*
X46322182Y-74775872D01*
X46355862Y-74802481D01*
X46412187Y-74821732D01*
X46593341Y-74762871D01*
X46361578Y-74049579D01*
X46203069Y-74101082D01*
X46168817Y-74149763D01*
X46157209Y-74191087D01*
X46156637Y-74266377D01*
X46178710Y-74334310D01*
X46223427Y-74394885D01*
X46257107Y-74421494D01*
X46313432Y-74440745D01*
X46471941Y-74389242D01*
X46074239Y-74706225D02*
X45847797Y-74779800D01*
X46185745Y-74895307D02*
X45795473Y-74233518D01*
X45868726Y-74998313D01*
X45546387Y-74314451D02*
X45274656Y-74402741D01*
X45642284Y-75071888D02*
X45410521Y-74358596D01*
X45259619Y-74895806D02*
X44897312Y-75013527D01*
X45166756Y-75226397D02*
X44990175Y-74682936D01*
X31762267Y-79168705D02*
X31705371Y-79224744D01*
X31693763Y-79266068D01*
X31693191Y-79341358D01*
X31726300Y-79443257D01*
X31771017Y-79503832D01*
X31804697Y-79530441D01*
X31861022Y-79549692D01*
X32042176Y-79490831D01*
X31810413Y-78777539D01*
X31651904Y-78829042D01*
X31617652Y-78877723D01*
X31606044Y-78919047D01*
X31605472Y-78994337D01*
X31627545Y-79062270D01*
X31672262Y-79122845D01*
X31705942Y-79149454D01*
X31762267Y-79168705D01*
X31920776Y-79117202D01*
X31523074Y-79434185D02*
X31296632Y-79507760D01*
X31634580Y-79623267D02*
X31244308Y-78961478D01*
X31317561Y-79726273D01*
X30995222Y-79042411D02*
X30723491Y-79130701D01*
X31091119Y-79799848D02*
X30859356Y-79086556D01*
X30708454Y-79623766D02*
X30346147Y-79741487D01*
D13*
D14*
X38105243Y-98844475D02*
X38153389Y-98453310D01*
X38376973Y-98756185D02*
X38145211Y-98042892D01*
X37964057Y-98101753D01*
X37929805Y-98150434D01*
X37918197Y-98191758D01*
X37917625Y-98267048D01*
X37950734Y-98368947D01*
X37995451Y-98429522D01*
X38029132Y-98456131D01*
X38085457Y-98475382D01*
X38266610Y-98416522D01*
X37579106Y-98226831D02*
X37488529Y-98256261D01*
X37454277Y-98304943D01*
X37431061Y-98387590D01*
X37452562Y-98530813D01*
X37529816Y-98768577D01*
X37596606Y-98897085D01*
X37663967Y-98950302D01*
X37720291Y-98969554D01*
X37810868Y-98940123D01*
X37845120Y-98891442D01*
X37868336Y-98808794D01*
X37846835Y-98665572D01*
X37769581Y-98427808D01*
X37702791Y-98299300D01*
X37635430Y-98246082D01*
X37579106Y-98226831D01*
X37216798Y-98344552D02*
X37335340Y-99094632D01*
X37079218Y-98614568D01*
X37154186Y-99153492D01*
X36809203Y-98476988D01*
X36610726Y-99330074D02*
X36882456Y-99241783D01*
X36746591Y-99285928D02*
X36514828Y-98572636D01*
X36593225Y-98659820D01*
X36660586Y-98713037D01*
X36716911Y-98732288D01*
X53272808Y-96445076D02*
X53306488Y-96471685D01*
X53385457Y-96483579D01*
X53430745Y-96468864D01*
X53487642Y-96412825D01*
X53510857Y-96330177D01*
X53511429Y-96254887D01*
X53489928Y-96111664D01*
X53456819Y-96009765D01*
X53390030Y-95881257D01*
X53345313Y-95820682D01*
X53277952Y-95767465D01*
X53198983Y-95755571D01*
X53153694Y-95770286D01*
X53096798Y-95826325D01*
X53085190Y-95867649D01*
X52768743Y-95895365D02*
X52678166Y-95924795D01*
X52643914Y-95973476D01*
X52620698Y-96056124D01*
X52642199Y-96199347D01*
X52719454Y-96437111D01*
X52786243Y-96565618D01*
X52853604Y-96618836D01*
X52909929Y-96638087D01*
X53000506Y-96608657D01*
X53034758Y-96559976D01*
X53057973Y-96477328D01*
X53036472Y-96334105D01*
X52959218Y-96096341D01*
X52892429Y-95967833D01*
X52825068Y-95914616D01*
X52768743Y-95895365D01*
X52366468Y-96814668D02*
X52592910Y-96741093D01*
X52361147Y-96027800D01*
X51849652Y-96456861D02*
X52004161Y-96932389D01*
X51874583Y-96148343D02*
X52153348Y-96621049D01*
X51858974Y-96716698D01*
X38909768Y-101320551D02*
X38957914Y-100929386D01*
X39181498Y-101232261D02*
X38949736Y-100518968D01*
X38768582Y-100577829D01*
X38734330Y-100626510D01*
X38722722Y-100667834D01*
X38722150Y-100743124D01*
X38755259Y-100845023D01*
X38799976Y-100905598D01*
X38833657Y-100932207D01*
X38889982Y-100951458D01*
X39071135Y-100892598D01*
X38383631Y-100702907D02*
X38293054Y-100732337D01*
X38258802Y-100781019D01*
X38235586Y-100863666D01*
X38257087Y-101006889D01*
X38334341Y-101244653D01*
X38401131Y-101373161D01*
X38468492Y-101426378D01*
X38524816Y-101445630D01*
X38615393Y-101416199D01*
X38649645Y-101367518D01*
X38672861Y-101284870D01*
X38651360Y-101141648D01*
X38574106Y-100903884D01*
X38507316Y-100775376D01*
X38439955Y-100722158D01*
X38383631Y-100702907D01*
X38021323Y-100820628D02*
X38139865Y-101570708D01*
X37883743Y-101090644D01*
X37958711Y-101629568D01*
X37613728Y-100953064D01*
X37477291Y-101072499D02*
X37443610Y-101045890D01*
X37387286Y-101026639D01*
X37274065Y-101063427D01*
X37239813Y-101112108D01*
X37228205Y-101153432D01*
X37227633Y-101228722D01*
X37249706Y-101296655D01*
X37305459Y-101391196D01*
X37709625Y-101710501D01*
X37415251Y-101806150D01*
X54135548Y-98938513D02*
X54169228Y-98965122D01*
X54248197Y-98977016D01*
X54293485Y-98962301D01*
X54350382Y-98906262D01*
X54373597Y-98823614D01*
X54374169Y-98748324D01*
X54352668Y-98605101D01*
X54319559Y-98503202D01*
X54252770Y-98374694D01*
X54208053Y-98314119D01*
X54140692Y-98260902D01*
X54061723Y-98249008D01*
X54016434Y-98263723D01*
X53959538Y-98319762D01*
X53947930Y-98361086D01*
X53631483Y-98388802D02*
X53540906Y-98418232D01*
X53506654Y-98466913D01*
X53483438Y-98549561D01*
X53504939Y-98692784D01*
X53582194Y-98930548D01*
X53648983Y-99059055D01*
X53716344Y-99112273D01*
X53772669Y-99131524D01*
X53863246Y-99102094D01*
X53897498Y-99053413D01*
X53920713Y-98970765D01*
X53899212Y-98827542D01*
X53821958Y-98589778D01*
X53755169Y-98461270D01*
X53687808Y-98408053D01*
X53631483Y-98388802D01*
X53229208Y-99308105D02*
X53455650Y-99234530D01*
X53223887Y-98521237D01*
X52612494Y-98719891D02*
X52838936Y-98646316D01*
X52971943Y-98978621D01*
X52938263Y-98952012D01*
X52881938Y-98932761D01*
X52768717Y-98969549D01*
X52734465Y-99018230D01*
X52722857Y-99059554D01*
X52722285Y-99134844D01*
X52777467Y-99304676D01*
X52822184Y-99365251D01*
X52855864Y-99391860D01*
X52912189Y-99411111D01*
X53025410Y-99374323D01*
X53059662Y-99325642D01*
X53071270Y-99284318D01*
X39685710Y-103708654D02*
X39733856Y-103317489D01*
X39957440Y-103620364D02*
X39725678Y-102907071D01*
X39544524Y-102965932D01*
X39510272Y-103014613D01*
X39498664Y-103055937D01*
X39498092Y-103131227D01*
X39531201Y-103233126D01*
X39575918Y-103293701D01*
X39609599Y-103320310D01*
X39665924Y-103339561D01*
X39847077Y-103280701D01*
X39159573Y-103091010D02*
X39068996Y-103120440D01*
X39034744Y-103169122D01*
X39011528Y-103251769D01*
X39033029Y-103394992D01*
X39110283Y-103632756D01*
X39177073Y-103761264D01*
X39244434Y-103814481D01*
X39300758Y-103833733D01*
X39391335Y-103804302D01*
X39425587Y-103755621D01*
X39448803Y-103672973D01*
X39427302Y-103529751D01*
X39350048Y-103291987D01*
X39283258Y-103163479D01*
X39215897Y-103110261D01*
X39159573Y-103091010D01*
X38797265Y-103208731D02*
X38915807Y-103958811D01*
X38659685Y-103478747D01*
X38734653Y-104017671D01*
X38389670Y-103341167D01*
X38253804Y-103385312D02*
X37959430Y-103480960D01*
X38206230Y-103701188D01*
X38138297Y-103723260D01*
X38104045Y-103771942D01*
X38092437Y-103813266D01*
X38091866Y-103888556D01*
X38147047Y-104058387D01*
X38191764Y-104118962D01*
X38225445Y-104145571D01*
X38281769Y-104164822D01*
X38417635Y-104120677D01*
X38451887Y-104071996D01*
X38463495Y-104030672D01*
X54926489Y-100844453D02*
X54869592Y-100900492D01*
X54857985Y-100941816D01*
X54857413Y-101017106D01*
X54890522Y-101119005D01*
X54935239Y-101179580D01*
X54968919Y-101206189D01*
X55025244Y-101225440D01*
X55206398Y-101166579D01*
X54974635Y-100453287D01*
X54816126Y-100504790D01*
X54781873Y-100553471D01*
X54770266Y-100594795D01*
X54769694Y-100670085D01*
X54791767Y-100738018D01*
X54836483Y-100798593D01*
X54870164Y-100825202D01*
X54926489Y-100844453D01*
X55084998Y-100792950D01*
X54543824Y-100668371D02*
X54510143Y-100641762D01*
X54453818Y-100622511D01*
X54340597Y-100659298D01*
X54306345Y-100707980D01*
X54294737Y-100749304D01*
X54294166Y-100824594D01*
X54316238Y-100892526D01*
X54371992Y-100987068D01*
X54776158Y-101306373D01*
X54481783Y-101402021D01*
X40169672Y-105772769D02*
X40112775Y-105828808D01*
X40101168Y-105870132D01*
X40100596Y-105945422D01*
X40133705Y-106047321D01*
X40178422Y-106107896D01*
X40212102Y-106134505D01*
X40268427Y-106153756D01*
X40449581Y-106094895D01*
X40217818Y-105381603D01*
X40059309Y-105433106D01*
X40025056Y-105481787D01*
X40013449Y-105523111D01*
X40012877Y-105598401D01*
X40034950Y-105666334D01*
X40079666Y-105726909D01*
X40113347Y-105753518D01*
X40169672Y-105772769D01*
X40328181Y-105721266D01*
X39615746Y-105840094D02*
X39770255Y-106315622D01*
X39640677Y-105531575D02*
X39919442Y-106004282D01*
X39625068Y-106099930D01*
X40954575Y-108188453D02*
X40897678Y-108244492D01*
X40886071Y-108285816D01*
X40885499Y-108361106D01*
X40918608Y-108463005D01*
X40963325Y-108523580D01*
X40997005Y-108550189D01*
X41053330Y-108569440D01*
X41234484Y-108510579D01*
X41002721Y-107797287D01*
X40844212Y-107848790D01*
X40809959Y-107897471D01*
X40798352Y-107938795D01*
X40797780Y-108014085D01*
X40819853Y-108082018D01*
X40864569Y-108142593D01*
X40898250Y-108169202D01*
X40954575Y-108188453D01*
X41113084Y-108136950D01*
X40300751Y-108025371D02*
X40527193Y-107951796D01*
X40660200Y-108284101D01*
X40626520Y-108257492D01*
X40570195Y-108238241D01*
X40456974Y-108275029D01*
X40422722Y-108323710D01*
X40411114Y-108365034D01*
X40410542Y-108440324D01*
X40465724Y-108610156D01*
X40510441Y-108670731D01*
X40544121Y-108697340D01*
X40600446Y-108716591D01*
X40713667Y-108679803D01*
X40747919Y-108631122D01*
X40759527Y-108589798D01*
X55670623Y-103340152D02*
X55613726Y-103396191D01*
X55602119Y-103437515D01*
X55601547Y-103512805D01*
X55634656Y-103614704D01*
X55679373Y-103675279D01*
X55713053Y-103701888D01*
X55769378Y-103721139D01*
X55950532Y-103662278D01*
X55718769Y-102948986D01*
X55560260Y-103000489D01*
X55526007Y-103049170D01*
X55514400Y-103090494D01*
X55513828Y-103165784D01*
X55535901Y-103233717D01*
X55580617Y-103294292D01*
X55614298Y-103320901D01*
X55670623Y-103340152D01*
X55829132Y-103288649D01*
X55039443Y-103169712D02*
X55130020Y-103140282D01*
X55186344Y-103159533D01*
X55220025Y-103186142D01*
X55298422Y-103273326D01*
X55365212Y-103401834D01*
X55453502Y-103673564D01*
X55452931Y-103748854D01*
X55441323Y-103790178D01*
X55407071Y-103838860D01*
X55316494Y-103868290D01*
X55260169Y-103849039D01*
X55226489Y-103822430D01*
X55181772Y-103761855D01*
X55126590Y-103592023D01*
X55127162Y-103516733D01*
X55138770Y-103475409D01*
X55173022Y-103426728D01*
X55263599Y-103397298D01*
X55319923Y-103416549D01*
X55353604Y-103443158D01*
X55398321Y-103503733D01*
X50211032Y-86860095D02*
X50244712Y-86886704D01*
X50323681Y-86898598D01*
X50368969Y-86883883D01*
X50425866Y-86827844D01*
X50449081Y-86745196D01*
X50449653Y-86669906D01*
X50428152Y-86526683D01*
X50395043Y-86424784D01*
X50328254Y-86296276D01*
X50283537Y-86235701D01*
X50216176Y-86182484D01*
X50137207Y-86170590D01*
X50091918Y-86185305D01*
X50035022Y-86241344D01*
X50023414Y-86282668D01*
X49706967Y-86310384D02*
X49616390Y-86339814D01*
X49582138Y-86388495D01*
X49558922Y-86471143D01*
X49580423Y-86614366D01*
X49657678Y-86852130D01*
X49724467Y-86980637D01*
X49791828Y-87033855D01*
X49848153Y-87053106D01*
X49938730Y-87023676D01*
X49972982Y-86974995D01*
X49996197Y-86892347D01*
X49974696Y-86749124D01*
X49897442Y-86511360D01*
X49830653Y-86382852D01*
X49763292Y-86329635D01*
X49706967Y-86310384D01*
X49304692Y-87229687D02*
X49531134Y-87156112D01*
X49299371Y-86442819D01*
X48823843Y-86597328D02*
X48778555Y-86612043D01*
X48744302Y-86660724D01*
X48732695Y-86702048D01*
X48732123Y-86777338D01*
X48753624Y-86920561D01*
X48808806Y-87090393D01*
X48875595Y-87218900D01*
X48920312Y-87279475D01*
X48953993Y-87306084D01*
X49010317Y-87325335D01*
X49055606Y-87310620D01*
X49089858Y-87261939D01*
X49101466Y-87220615D01*
X49102037Y-87145325D01*
X49080536Y-87002102D01*
X49025355Y-86832271D01*
X48958565Y-86703763D01*
X48913848Y-86643188D01*
X48880168Y-86616579D01*
X48823843Y-86597328D01*
X35955567Y-91493253D02*
X35898671Y-91549292D01*
X35785450Y-91586079D01*
X35729125Y-91566828D01*
X35695445Y-91540219D01*
X35650728Y-91479644D01*
X35628655Y-91411712D01*
X35629227Y-91336422D01*
X35640835Y-91295098D01*
X35675087Y-91246416D01*
X35754627Y-91183020D01*
X35788879Y-91134338D01*
X35800487Y-91093015D01*
X35801059Y-91017724D01*
X35778986Y-90949792D01*
X35734269Y-90889217D01*
X35700589Y-90862608D01*
X35644264Y-90843357D01*
X35531043Y-90880144D01*
X35474147Y-90936183D01*
X35491075Y-91681727D02*
X35259313Y-90968435D01*
X35146092Y-91005223D01*
X35089195Y-91061262D01*
X35065980Y-91143909D01*
X35065408Y-91219200D01*
X35086909Y-91362422D01*
X35120018Y-91464321D01*
X35186808Y-91592829D01*
X35231524Y-91653404D01*
X35298886Y-91706622D01*
X35377854Y-91718515D01*
X35491075Y-91681727D01*
X34971973Y-91625081D02*
X34745531Y-91698656D01*
X35083480Y-91814163D02*
X34693208Y-91152374D01*
X34766461Y-91917169D01*
X50985274Y-89242967D02*
X51018954Y-89269576D01*
X51097923Y-89281470D01*
X51143211Y-89266755D01*
X51200108Y-89210716D01*
X51223323Y-89128068D01*
X51223895Y-89052778D01*
X51202394Y-88909555D01*
X51169285Y-88807656D01*
X51102496Y-88679148D01*
X51057779Y-88618573D01*
X50990418Y-88565356D01*
X50911449Y-88553462D01*
X50866160Y-88568177D01*
X50809264Y-88624216D01*
X50797656Y-88665540D01*
X50481209Y-88693256D02*
X50390632Y-88722686D01*
X50356380Y-88771367D01*
X50333164Y-88854015D01*
X50354665Y-88997238D01*
X50431920Y-89235002D01*
X50498709Y-89363509D01*
X50566070Y-89416727D01*
X50622395Y-89435978D01*
X50712972Y-89406548D01*
X50747224Y-89357867D01*
X50770439Y-89275219D01*
X50748938Y-89131996D01*
X50671684Y-88894232D01*
X50604895Y-88765724D01*
X50537534Y-88712507D01*
X50481209Y-88693256D01*
X50078934Y-89612559D02*
X50305376Y-89538984D01*
X50073613Y-88825691D01*
X49671338Y-89744995D02*
X49943069Y-89656705D01*
X49807203Y-89700850D02*
X49575441Y-88987557D01*
X49653838Y-89074741D01*
X49721199Y-89127959D01*
X49777524Y-89147210D01*
X36729148Y-93912615D02*
X36672252Y-93968654D01*
X36559031Y-94005442D01*
X36502706Y-93986191D01*
X36469026Y-93959582D01*
X36424309Y-93899007D01*
X36402236Y-93831074D01*
X36402808Y-93755784D01*
X36414416Y-93714460D01*
X36448668Y-93665779D01*
X36528208Y-93602383D01*
X36562460Y-93553701D01*
X36574068Y-93512377D01*
X36574640Y-93437087D01*
X36552567Y-93369155D01*
X36507850Y-93308579D01*
X36474170Y-93281971D01*
X36417845Y-93262720D01*
X36304624Y-93299507D01*
X36247728Y-93355546D01*
X35970853Y-94121448D02*
X36004534Y-94148057D01*
X36083503Y-94159951D01*
X36128791Y-94145235D01*
X36185687Y-94089197D01*
X36208903Y-94006549D01*
X36209475Y-93931259D01*
X36187974Y-93788036D01*
X36154865Y-93686137D01*
X36088075Y-93557629D01*
X36043358Y-93497054D01*
X35975997Y-93443837D01*
X35897028Y-93431943D01*
X35851740Y-93446658D01*
X35794844Y-93502697D01*
X35783236Y-93544021D01*
X35562686Y-94329174D02*
X35789128Y-94255599D01*
X35557365Y-93542306D01*
X51771568Y-91662930D02*
X51805248Y-91689539D01*
X51884217Y-91701433D01*
X51929505Y-91686718D01*
X51986402Y-91630679D01*
X52009617Y-91548031D01*
X52010189Y-91472741D01*
X51988688Y-91329518D01*
X51955579Y-91227619D01*
X51888790Y-91099111D01*
X51844073Y-91038536D01*
X51776712Y-90985319D01*
X51697743Y-90973425D01*
X51652454Y-90988140D01*
X51595558Y-91044179D01*
X51583950Y-91085503D01*
X51267503Y-91113219D02*
X51176926Y-91142649D01*
X51142674Y-91191330D01*
X51119458Y-91273978D01*
X51140959Y-91417201D01*
X51218214Y-91654965D01*
X51285003Y-91783472D01*
X51352364Y-91836690D01*
X51408689Y-91855941D01*
X51499266Y-91826511D01*
X51533518Y-91777830D01*
X51556733Y-91695182D01*
X51535232Y-91551959D01*
X51457978Y-91314195D01*
X51391189Y-91185687D01*
X51323828Y-91132470D01*
X51267503Y-91113219D01*
X50865228Y-92032522D02*
X51091670Y-91958947D01*
X50859907Y-91245654D01*
X50519673Y-91431308D02*
X50485992Y-91404699D01*
X50429667Y-91385448D01*
X50316446Y-91422236D01*
X50282194Y-91470917D01*
X50270586Y-91512241D01*
X50270015Y-91587531D01*
X50292087Y-91655464D01*
X50347841Y-91750005D01*
X50752007Y-92069310D01*
X50457632Y-92164958D01*
X37300717Y-96368399D02*
X37348863Y-95977234D01*
X37572447Y-96280109D02*
X37340685Y-95566816D01*
X37159531Y-95625677D01*
X37125279Y-95674358D01*
X37113671Y-95715682D01*
X37113099Y-95790972D01*
X37146208Y-95892871D01*
X37190925Y-95953446D01*
X37224606Y-95980055D01*
X37280931Y-95999306D01*
X37462084Y-95940446D01*
X36774580Y-95750755D02*
X36684003Y-95780185D01*
X36649751Y-95828867D01*
X36626535Y-95911514D01*
X36648036Y-96054737D01*
X36725290Y-96292501D01*
X36792080Y-96421009D01*
X36859441Y-96474226D01*
X36915765Y-96493478D01*
X37006342Y-96464047D01*
X37040594Y-96415366D01*
X37063810Y-96332718D01*
X37042309Y-96189496D01*
X36965055Y-95951732D01*
X36898265Y-95823224D01*
X36830904Y-95770006D01*
X36774580Y-95750755D01*
X36412272Y-95868476D02*
X36530814Y-96618556D01*
X36274692Y-96138492D01*
X36349660Y-96677416D01*
X36004677Y-96000912D01*
X35732946Y-96089202D02*
X35687658Y-96103917D01*
X35653406Y-96152599D01*
X35641798Y-96193923D01*
X35641226Y-96269213D01*
X35662727Y-96412436D01*
X35717909Y-96582267D01*
X35784698Y-96710775D01*
X35829415Y-96771350D01*
X35863096Y-96797959D01*
X35919421Y-96817210D01*
X35964709Y-96802495D01*
X35998961Y-96753813D01*
X36010569Y-96712489D01*
X36011140Y-96637199D01*
X35989639Y-96493977D01*
X35934458Y-96324145D01*
X35867668Y-96195637D01*
X35822951Y-96135062D01*
X35789271Y-96108454D01*
X35732946Y-96089202D01*
X52544110Y-94040572D02*
X52577790Y-94067181D01*
X52656759Y-94079075D01*
X52702047Y-94064360D01*
X52758944Y-94008321D01*
X52782159Y-93925673D01*
X52782731Y-93850383D01*
X52761230Y-93707160D01*
X52728121Y-93605261D01*
X52661332Y-93476753D01*
X52616615Y-93416178D01*
X52549254Y-93362961D01*
X52470285Y-93351067D01*
X52424996Y-93365782D01*
X52368100Y-93421821D01*
X52356492Y-93463145D01*
X52040045Y-93490861D02*
X51949468Y-93520291D01*
X51915216Y-93568972D01*
X51892000Y-93651620D01*
X51913501Y-93794843D01*
X51990756Y-94032607D01*
X52057545Y-94161114D01*
X52124906Y-94214332D01*
X52181231Y-94233583D01*
X52271808Y-94204153D01*
X52306060Y-94155472D01*
X52329275Y-94072824D01*
X52307774Y-93929601D01*
X52230520Y-93691837D01*
X52163731Y-93563329D01*
X52096370Y-93510112D01*
X52040045Y-93490861D01*
X51637770Y-94410164D02*
X51864212Y-94336589D01*
X51632449Y-93623296D01*
X51292786Y-93733660D02*
X50998412Y-93829308D01*
X51245211Y-94049535D01*
X51177279Y-94071608D01*
X51143027Y-94120289D01*
X51131419Y-94161613D01*
X51130847Y-94236903D01*
X51186029Y-94406735D01*
X51230746Y-94467310D01*
X51264426Y-94493919D01*
X51320751Y-94513170D01*
X51456616Y-94469025D01*
X51490868Y-94420343D01*
X51502476Y-94379019D01*
X34745854Y-88502107D02*
X34780106Y-88453425D01*
X34848039Y-88431353D01*
X34927008Y-88443246D01*
X34994369Y-88496464D01*
X35039086Y-88557039D01*
X35105875Y-88685546D01*
X35138984Y-88787445D01*
X35160485Y-88930668D01*
X35159914Y-89005958D01*
X35136698Y-89088606D01*
X35079802Y-89144645D01*
X35034513Y-89159360D01*
X34955544Y-89147466D01*
X34921864Y-89120858D01*
X34844610Y-88883093D01*
X34935187Y-88853663D01*
X34740139Y-89255008D02*
X34508376Y-88541716D01*
X34468408Y-89343299D01*
X34236646Y-88630006D01*
X34241966Y-89416874D02*
X34010204Y-88703582D01*
X33896983Y-88740369D01*
X33840086Y-88796408D01*
X33816870Y-88879056D01*
X33816299Y-88954346D01*
X33837800Y-89097569D01*
X33870909Y-89199468D01*
X33937698Y-89327976D01*
X33982415Y-89388551D01*
X34049776Y-89441768D01*
X34128745Y-89453662D01*
X34241966Y-89416874D01*
X49440257Y-83690053D02*
X49513511Y-84454848D01*
X49123239Y-83793058D01*
X48902689Y-84578212D02*
X48936369Y-84604820D01*
X49015338Y-84616714D01*
X49060627Y-84601999D01*
X49117523Y-84545960D01*
X49140739Y-84463312D01*
X49141310Y-84388022D01*
X49119809Y-84244799D01*
X49086700Y-84142900D01*
X49019911Y-84014393D01*
X48975194Y-83953818D01*
X48907833Y-83900600D01*
X48828864Y-83888706D01*
X48783576Y-83903422D01*
X48726679Y-83959460D01*
X48715071Y-84000784D01*
X48427161Y-84732720D02*
X48460841Y-84759329D01*
X48539810Y-84771222D01*
X48585098Y-84756507D01*
X48641995Y-84700468D01*
X48665211Y-84617821D01*
X48665782Y-84542531D01*
X48644281Y-84399308D01*
X48611172Y-84297409D01*
X48544383Y-84168901D01*
X48499666Y-84108326D01*
X48432305Y-84055109D01*
X48353336Y-84043215D01*
X48308047Y-84057930D01*
X48251151Y-84113969D01*
X48239543Y-84155293D01*
X33960951Y-86086423D02*
X33995203Y-86037741D01*
X34063136Y-86015669D01*
X34142105Y-86027562D01*
X34209466Y-86080780D01*
X34254183Y-86141355D01*
X34320972Y-86269862D01*
X34354081Y-86371761D01*
X34375582Y-86514984D01*
X34375011Y-86590274D01*
X34351795Y-86672922D01*
X34294899Y-86728961D01*
X34249610Y-86743676D01*
X34170641Y-86731782D01*
X34136961Y-86705174D01*
X34059707Y-86467409D01*
X34150284Y-86437979D01*
X33955236Y-86839324D02*
X33723473Y-86126032D01*
X33683505Y-86927615D01*
X33451743Y-86214322D01*
X33457063Y-87001190D02*
X33225301Y-86287898D01*
X33112080Y-86324685D01*
X33055183Y-86380724D01*
X33031967Y-86463372D01*
X33031396Y-86538662D01*
X33052897Y-86681885D01*
X33086006Y-86783784D01*
X33152795Y-86912292D01*
X33197512Y-86972867D01*
X33264873Y-87026084D01*
X33343842Y-87037978D01*
X33457063Y-87001190D01*
X48573880Y-82089439D02*
X48622026Y-81698273D01*
X48845610Y-82001148D02*
X48613848Y-81287856D01*
X48432694Y-81346716D01*
X48398442Y-81395397D01*
X48386834Y-81436721D01*
X48386262Y-81512011D01*
X48419371Y-81613910D01*
X48464088Y-81674485D01*
X48497769Y-81701094D01*
X48554093Y-81720345D01*
X48735247Y-81661485D01*
X48381690Y-82114333D02*
X48324794Y-82170372D01*
X48211573Y-82207159D01*
X48155248Y-82187908D01*
X48121567Y-82161299D01*
X48076851Y-82100724D01*
X48054778Y-82032792D01*
X48055349Y-81957502D01*
X48066957Y-81916178D01*
X48101209Y-81867496D01*
X48180750Y-81804100D01*
X48215002Y-81755418D01*
X48226610Y-81714095D01*
X48227181Y-81638804D01*
X48205109Y-81570872D01*
X48160392Y-81510297D01*
X48126711Y-81483688D01*
X48070387Y-81464437D01*
X47957166Y-81501225D01*
X47900269Y-81557263D01*
X47753368Y-81567442D02*
X47481637Y-81655733D01*
X47849265Y-82324880D02*
X47617503Y-81611588D01*
X33636443Y-84382070D02*
X33404680Y-83668777D01*
X33291459Y-83705565D01*
X33234563Y-83761604D01*
X33211347Y-83844252D01*
X33210776Y-83919542D01*
X33232277Y-84062765D01*
X33265386Y-84164663D01*
X33332175Y-84293171D01*
X33376892Y-84353746D01*
X33444253Y-84406964D01*
X33523222Y-84418857D01*
X33636443Y-84382070D01*
X33117341Y-84325423D02*
X32890899Y-84398998D01*
X33228847Y-84514505D02*
X32838575Y-83852716D01*
X32911828Y-84617511D01*
X32589489Y-83933649D02*
X32317758Y-84021940D01*
X32685386Y-84691087D02*
X32453624Y-83977794D01*
X32347438Y-84575579D02*
X32120996Y-84649155D01*
X32458944Y-84764662D02*
X32068672Y-84102873D01*
X32141926Y-84867668D01*
X47590134Y-78920551D02*
X47624386Y-78871869D01*
X47692319Y-78849797D01*
X47771288Y-78861690D01*
X47838649Y-78914908D01*
X47883366Y-78975483D01*
X47950155Y-79103990D01*
X47983264Y-79205889D01*
X48004765Y-79349112D01*
X48004194Y-79424402D01*
X47980978Y-79507050D01*
X47924082Y-79563089D01*
X47878793Y-79577804D01*
X47799824Y-79565910D01*
X47766144Y-79539302D01*
X47688890Y-79301537D01*
X47779467Y-79272107D01*
X47584419Y-79673452D02*
X47352656Y-78960160D01*
X47312688Y-79761743D01*
X47080926Y-79048450D01*
X47086246Y-79835318D02*
X46854484Y-79122026D01*
X46741263Y-79158813D01*
X46684366Y-79214852D01*
X46661150Y-79297500D01*
X46660579Y-79372790D01*
X46682080Y-79516013D01*
X46715189Y-79617912D01*
X46781978Y-79746420D01*
X46826695Y-79806995D01*
X46894056Y-79860212D01*
X46973025Y-79872106D01*
X47086246Y-79835318D01*
X32555261Y-81952775D02*
X32781703Y-81879200D01*
X32549941Y-81165908D01*
X32275352Y-81630649D02*
X32116843Y-81682152D01*
X32170310Y-82077854D02*
X32396752Y-82004278D01*
X32164989Y-81290986D01*
X31938547Y-81364561D01*
X31966512Y-82144072D02*
X31734749Y-81430779D01*
X31621528Y-81467567D01*
X31564632Y-81523606D01*
X31541416Y-81606254D01*
X31540845Y-81681544D01*
X31562346Y-81824767D01*
X31595455Y-81926666D01*
X31662244Y-82055173D01*
X31706961Y-82115748D01*
X31774322Y-82168966D01*
X31853291Y-82180859D01*
X31966512Y-82144072D01*
X47072006Y-77235999D02*
X47120153Y-76844833D01*
X47343737Y-77147708D02*
X47111974Y-76434416D01*
X46930821Y-76493276D01*
X46896568Y-76541958D01*
X46884961Y-76583282D01*
X46884389Y-76658572D01*
X46917498Y-76760471D01*
X46962215Y-76821046D01*
X46995895Y-76847655D01*
X47052220Y-76866906D01*
X47233374Y-76808045D01*
X46824635Y-77091062D02*
X46598193Y-77164637D01*
X46936141Y-77280144D02*
X46545869Y-76618355D01*
X46619122Y-77383150D01*
X46274139Y-76706645D02*
X46392680Y-77456725D01*
X46136559Y-76976661D01*
X46211527Y-77515586D01*
X45866543Y-76839081D01*
%TO.C,Power1*%
D13*
X75691368Y-60944084D02*
X75382351Y-59993028D01*
X75020044Y-60110748D01*
X74944182Y-60185467D01*
X74913609Y-60245471D01*
X74897751Y-60350762D01*
X74941896Y-60486628D01*
X75016614Y-60562489D01*
X75076618Y-60593063D01*
X75181910Y-60608921D01*
X75544217Y-60491200D01*
X74604446Y-61297246D02*
X74680308Y-61222528D01*
X74710881Y-61162524D01*
X74726740Y-61057232D01*
X74638449Y-60785502D01*
X74563730Y-60709640D01*
X74503727Y-60679067D01*
X74398435Y-60663209D01*
X74262570Y-60707354D01*
X74186708Y-60782073D01*
X74156135Y-60842076D01*
X74140276Y-60947368D01*
X74228567Y-61219098D01*
X74303286Y-61294960D01*
X74363289Y-61325534D01*
X74468581Y-61341392D01*
X74604446Y-61297246D01*
X73764397Y-60869220D02*
X73789255Y-61562118D01*
X73460950Y-61168094D01*
X73426948Y-61679839D01*
X73039783Y-61104662D01*
X72506465Y-61928852D02*
X72611756Y-61944711D01*
X72792910Y-61885850D01*
X72868772Y-61811132D01*
X72884630Y-61705840D01*
X72766909Y-61343532D01*
X72692191Y-61267671D01*
X72586899Y-61251813D01*
X72405745Y-61310673D01*
X72329883Y-61385392D01*
X72314025Y-61490683D01*
X72343455Y-61581260D01*
X72825770Y-61524686D01*
X72068296Y-62121292D02*
X71862284Y-61487254D01*
X71921145Y-61668408D02*
X71846426Y-61592546D01*
X71786423Y-61561973D01*
X71681131Y-61546114D01*
X71590554Y-61575545D01*
X71479546Y-62312588D02*
X71170529Y-61361531D01*
X71288250Y-61723839D02*
X71182958Y-61707981D01*
X71001805Y-61766841D01*
X70925943Y-61841559D01*
X70895370Y-61901563D01*
X70879511Y-62006855D01*
X70967802Y-62278585D01*
X71042520Y-62354447D01*
X71102524Y-62385020D01*
X71207816Y-62400879D01*
X71388969Y-62342018D01*
X71464831Y-62267300D01*
X70005460Y-62090573D02*
X70211471Y-62724611D01*
X70413055Y-61958137D02*
X70574921Y-62456310D01*
X70559063Y-62561601D01*
X70483201Y-62636320D01*
X70347336Y-62680465D01*
X70242044Y-62664607D01*
X70182041Y-62634034D01*
X69688441Y-62193579D02*
X69326134Y-62311299D01*
X69449570Y-61920705D02*
X69714442Y-62735896D01*
X69698583Y-62841188D01*
X69622722Y-62915907D01*
X69532145Y-62945337D01*
X69144980Y-62370160D02*
X68782673Y-62487881D01*
X68906109Y-62097286D02*
X69170981Y-62912478D01*
X69155123Y-63017769D01*
X69079261Y-63092488D01*
X68988684Y-63121918D01*
X68535800Y-63269069D02*
X68611662Y-63194351D01*
X68642235Y-63134347D01*
X68658093Y-63029055D01*
X68569803Y-62757325D01*
X68495084Y-62681463D01*
X68435081Y-62650890D01*
X68329789Y-62635031D01*
X68193923Y-62679177D01*
X68118062Y-62753895D01*
X68087488Y-62813899D01*
X68071630Y-62919191D01*
X68159921Y-63190921D01*
X68234639Y-63266783D01*
X68294643Y-63297356D01*
X68399935Y-63313214D01*
X68535800Y-63269069D01*
X67605174Y-62870473D02*
X67811185Y-63504511D01*
X67634604Y-62961050D02*
X67574601Y-62930477D01*
X67469309Y-62914618D01*
X67333444Y-62958764D01*
X67257582Y-63033482D01*
X67241724Y-63138774D01*
X67403590Y-63636947D01*
%TO.C,J1*%
X46737048Y-112738131D02*
X46193587Y-112914712D01*
X46774334Y-113777478D02*
X46465317Y-112826422D01*
X45642124Y-114145356D02*
X45811992Y-113589466D01*
X46185585Y-113968775D02*
X45876568Y-113017718D01*
X45514261Y-113135439D01*
X45438399Y-113210157D01*
X45407826Y-113270161D01*
X45391968Y-113375453D01*
X45436113Y-113511318D01*
X45510832Y-113587180D01*
X45570835Y-113617753D01*
X45676127Y-113633611D01*
X46038434Y-113515891D01*
X44691068Y-114454373D02*
X44860936Y-113898483D01*
X45234529Y-114277792D02*
X44925512Y-113326735D01*
X44563204Y-113444456D01*
X44487343Y-113519174D01*
X44456769Y-113579178D01*
X44440911Y-113684470D01*
X44485056Y-113820335D01*
X44559775Y-113896197D01*
X44619779Y-113926770D01*
X44725070Y-113942628D01*
X45087378Y-113824908D01*
X44314045Y-114526805D02*
X44192895Y-114616239D01*
X43966453Y-114689814D01*
X43861161Y-114673956D01*
X43801158Y-114643383D01*
X43726439Y-114567521D01*
X43697009Y-114476944D01*
X43712867Y-114371652D01*
X43743441Y-114311649D01*
X43819302Y-114236930D01*
X43985741Y-114132781D01*
X44061603Y-114058063D01*
X44092176Y-113998059D01*
X44108034Y-113892767D01*
X44078604Y-113802191D01*
X44003885Y-113726329D01*
X43943882Y-113695756D01*
X43838590Y-113679897D01*
X43612148Y-113753473D01*
X43490998Y-113842907D01*
%TD*%
M02*
